<svg version="1.2" xmlns="http://www.w3.org/2000/svg" viewBox="0 0 294 215" width="294" height="215">
	<title>flower-ai</title>
	<defs>
		<linearGradient id="g1" x1="180" y1="92.1" x2="298.5" y2="31.6" gradientUnits="userSpaceOnUse">
			<stop offset="0" stop-color="#00ab4f"/>
			<stop offset=".5" stop-color="#f6fbf8"/>
			<stop offset="1" stop-color="#00ab4f"/>
		</linearGradient>
		<linearGradient id="g2" x1="190.7" y1="102.6" x2="266.3" y2="67.2" gradientUnits="userSpaceOnUse">
			<stop offset="0" stop-color="#00ab4f"/>
			<stop offset=".5" stop-color="#f6fbf8"/>
			<stop offset="1" stop-color="#00ab4f"/>
		</linearGradient>
		<linearGradient id="g3" x1="0" y1="0" x2="0" y2="0" gradientUnits="userSpaceOnUse">
			<stop offset="0" stop-color="#00ab4f"/>
			<stop offset=".5" stop-color="#f6fbf8"/>
			<stop offset="1" stop-color="#00ab4f"/>
		</linearGradient>
		<linearGradient id="g4" x1="65.4" y1="88.1" x2="75.9" y2="93.4" gradientUnits="userSpaceOnUse">
			<stop offset="0" stop-color="#00ab4f"/>
			<stop offset=".5" stop-color="#f6fbf8"/>
			<stop offset="1" stop-color="#00ab4f"/>
		</linearGradient>
		<linearGradient id="g5" x1="203.8" y1="57" x2="85.3" y2="-3.5" gradientUnits="userSpaceOnUse">
			<stop offset="0" stop-color="#00ab4f"/>
			<stop offset=".5" stop-color="#f6fbf8"/>
			<stop offset="1" stop-color="#00ab4f"/>
		</linearGradient>
		<linearGradient id="g6" x1="193.1" y1="67.5" x2="117.5" y2="32.1" gradientUnits="userSpaceOnUse">
			<stop offset="0" stop-color="#00ab4f"/>
			<stop offset=".5" stop-color="#f6fbf8"/>
			<stop offset="1" stop-color="#00ab4f"/>
		</linearGradient>
		<linearGradient id="g7" x1="0" y1="0" x2="0" y2="0" gradientUnits="userSpaceOnUse">
			<stop offset="0" stop-color="#00ab4f"/>
			<stop offset=".5" stop-color="#f6fbf8"/>
			<stop offset="1" stop-color="#00ab4f"/>
		</linearGradient>
		<linearGradient id="g8" x1="69" y1="149.2" x2="-49.5" y2="88.7" gradientUnits="userSpaceOnUse">
			<stop offset="0" stop-color="#00ab4f"/>
			<stop offset=".5" stop-color="#f6fbf8"/>
			<stop offset="1" stop-color="#00ab4f"/>
		</linearGradient>
		<linearGradient id="g9" x1="58.3" y1="159.7" x2="-17.3" y2="124.3" gradientUnits="userSpaceOnUse">
			<stop offset="0" stop-color="#00ab4f"/>
			<stop offset=".5" stop-color="#f6fbf8"/>
			<stop offset="1" stop-color="#00ab4f"/>
		</linearGradient>
		<linearGradient id="g10" x1="0" y1="0" x2="0" y2="0" gradientUnits="userSpaceOnUse">
			<stop offset="0" stop-color="#00ab4f"/>
			<stop offset=".5" stop-color="#f6fbf8"/>
			<stop offset="1" stop-color="#00ab4f"/>
		</linearGradient>
		<linearGradient id="g11" x1="45.2" y1="179.5" x2="184.4" y2="161.9" gradientUnits="userSpaceOnUse">
			<stop offset="0" stop-color="#00ab4f"/>
			<stop offset=".5" stop-color="#f6fbf8"/>
			<stop offset="1" stop-color="#00ab4f"/>
		</linearGradient>
		<linearGradient id="g12" x1="33.8" y1="190.3" x2="166.3" y2="178" gradientUnits="userSpaceOnUse">
			<stop offset="0" stop-color="#00ab4f"/>
			<stop offset=".5" stop-color="#f6fbf8"/>
			<stop offset="1" stop-color="#00ab4f"/>
		</linearGradient>
		<linearGradient id="g13" x1="0" y1="0" x2="0" y2="0" gradientUnits="userSpaceOnUse">
			<stop offset="0" stop-color="#00ab4f"/>
			<stop offset=".5" stop-color="#f6fbf8"/>
			<stop offset="1" stop-color="#00ab4f"/>
		</linearGradient>
		<linearGradient id="g14" x1="108.8" y1="127.7" x2="248" y2="110" gradientUnits="userSpaceOnUse">
			<stop offset="0" stop-color="#00ab4f"/>
			<stop offset=".5" stop-color="#f6fbf8"/>
			<stop offset="1" stop-color="#00ab4f"/>
		</linearGradient>
		<linearGradient id="g15" x1="97.4" y1="138.4" x2="229.9" y2="126.2" gradientUnits="userSpaceOnUse">
			<stop offset="0" stop-color="#00ab4f"/>
			<stop offset=".5" stop-color="#f6fbf8"/>
			<stop offset="1" stop-color="#00ab4f"/>
		</linearGradient>
		<linearGradient id="g16" x1="0" y1="0" x2="0" y2="0" gradientUnits="userSpaceOnUse">
			<stop offset="0" stop-color="#00ab4f"/>
			<stop offset=".5" stop-color="#f6fbf8"/>
			<stop offset="1" stop-color="#00ab4f"/>
		</linearGradient>
		<linearGradient id="g17" x1="261.7" y1="111.4" x2="255.4" y2="102.2" gradientUnits="userSpaceOnUse">
			<stop offset="0" stop-color="#00ab4f"/>
			<stop offset=".5" stop-color="#f6fbf8"/>
			<stop offset="1" stop-color="#00ab4f"/>
		</linearGradient>
		<linearGradient id="g18" x1="260.7" y1="117.3" x2="283.9" y2="113.8" gradientUnits="userSpaceOnUse">
			<stop offset="0" stop-color="#fda2c8"/>
			<stop offset="1" stop-color="#fffdfe"/>
		</linearGradient>
		<linearGradient id="g19" x1="261.1" y1="115" x2="273.9" y2="96.9" gradientUnits="userSpaceOnUse">
			<stop offset="0" stop-color="#fda2c8"/>
			<stop offset="1" stop-color="#fffdfe"/>
		</linearGradient>
		<linearGradient id="g20" x1="261.1" y1="116.8" x2="256.7" y2="93.8" gradientUnits="userSpaceOnUse">
			<stop offset="0" stop-color="#fda2c8"/>
			<stop offset="1" stop-color="#fffdfe"/>
		</linearGradient>
		<linearGradient id="g21" x1="259" y1="116.4" x2="240.2" y2="104.4" gradientUnits="userSpaceOnUse">
			<stop offset="0" stop-color="#fda2c8"/>
			<stop offset="1" stop-color="#fffdfe"/>
		</linearGradient>
		<linearGradient id="g22" x1="260.7" y1="116.3" x2="237.9" y2="121.8" gradientUnits="userSpaceOnUse">
			<stop offset="0" stop-color="#fda2c8"/>
			<stop offset="1" stop-color="#fffdfe"/>
		</linearGradient>
		<linearGradient id="g23" x1="260.3" y1="118.3" x2="249.1" y2="137.7" gradientUnits="userSpaceOnUse">
			<stop offset="0" stop-color="#fda2c8"/>
			<stop offset="1" stop-color="#fffdfe"/>
		</linearGradient>
		<linearGradient id="g24" x1="260.1" y1="116.8" x2="266.7" y2="139.3" gradientUnits="userSpaceOnUse">
			<stop offset="0" stop-color="#fda2c8"/>
			<stop offset="1" stop-color="#fffdfe"/>
		</linearGradient>
		<linearGradient id="g25" x1="261.9" y1="117" x2="281.9" y2="127.5" gradientUnits="userSpaceOnUse">
			<stop offset="0" stop-color="#fda2c8"/>
			<stop offset="1" stop-color="#fffdfe"/>
		</linearGradient>
		<linearGradient id="g26" x1="220.1" y1="118.9" x2="222.6" y2="109" gradientUnits="userSpaceOnUse">
			<stop offset="0" stop-color="#00ab4f"/>
			<stop offset=".5" stop-color="#f6fbf8"/>
			<stop offset="1" stop-color="#00ab4f"/>
		</linearGradient>
		<linearGradient id="g27" x1="226.9" y1="127.9" x2="224.1" y2="138.8" gradientUnits="userSpaceOnUse">
			<stop offset="0" stop-color="#00ab4f"/>
			<stop offset=".5" stop-color="#f6fbf8"/>
			<stop offset="1" stop-color="#00ab4f"/>
		</linearGradient>
		<linearGradient id="g28" x1="169.9" y1="155.5" x2="163.7" y2="146.3" gradientUnits="userSpaceOnUse">
			<stop offset="0" stop-color="#00ab4f"/>
			<stop offset=".5" stop-color="#f6fbf8"/>
			<stop offset="1" stop-color="#00ab4f"/>
		</linearGradient>
		<linearGradient id="g29" x1="169" y1="161.3" x2="192.1" y2="157.9" gradientUnits="userSpaceOnUse">
			<stop offset="0" stop-color="#fda2c8"/>
			<stop offset="1" stop-color="#fffdfe"/>
		</linearGradient>
		<linearGradient id="g30" x1="169.4" y1="159.1" x2="182.2" y2="141" gradientUnits="userSpaceOnUse">
			<stop offset="0" stop-color="#fda2c8"/>
			<stop offset="1" stop-color="#fffdfe"/>
		</linearGradient>
		<linearGradient id="g31" x1="169.4" y1="160.9" x2="164.9" y2="137.9" gradientUnits="userSpaceOnUse">
			<stop offset="0" stop-color="#fda2c8"/>
			<stop offset="1" stop-color="#fffdfe"/>
		</linearGradient>
		<linearGradient id="g32" x1="167.3" y1="160.5" x2="148.5" y2="148.5" gradientUnits="userSpaceOnUse">
			<stop offset="0" stop-color="#fda2c8"/>
			<stop offset="1" stop-color="#fffdfe"/>
		</linearGradient>
		<linearGradient id="g33" x1="169" y1="160.4" x2="146.2" y2="165.9" gradientUnits="userSpaceOnUse">
			<stop offset="0" stop-color="#fda2c8"/>
			<stop offset="1" stop-color="#fffdfe"/>
		</linearGradient>
		<linearGradient id="g34" x1="168.6" y1="162.4" x2="157.4" y2="181.8" gradientUnits="userSpaceOnUse">
			<stop offset="0" stop-color="#fda2c8"/>
			<stop offset="1" stop-color="#fffdfe"/>
		</linearGradient>
		<linearGradient id="g35" x1="168.4" y1="160.9" x2="175" y2="183.4" gradientUnits="userSpaceOnUse">
			<stop offset="0" stop-color="#fda2c8"/>
			<stop offset="1" stop-color="#fffdfe"/>
		</linearGradient>
		<linearGradient id="g36" x1="170.2" y1="161.1" x2="190.2" y2="171.6" gradientUnits="userSpaceOnUse">
			<stop offset="0" stop-color="#fda2c8"/>
			<stop offset="1" stop-color="#fffdfe"/>
		</linearGradient>
		<linearGradient id="g37" x1="128.4" y1="163" x2="130.9" y2="153.1" gradientUnits="userSpaceOnUse">
			<stop offset="0" stop-color="#00ab4f"/>
			<stop offset=".5" stop-color="#f6fbf8"/>
			<stop offset="1" stop-color="#00ab4f"/>
		</linearGradient>
		<linearGradient id="g38" x1="135.2" y1="172" x2="132.4" y2="182.9" gradientUnits="userSpaceOnUse">
			<stop offset="0" stop-color="#00ab4f"/>
			<stop offset=".5" stop-color="#f6fbf8"/>
			<stop offset="1" stop-color="#00ab4f"/>
		</linearGradient>
		<linearGradient id="g39" x1="156.6" y1="31.3" x2="165.2" y2="40.9" gradientUnits="userSpaceOnUse">
			<stop offset="0" stop-color="#00ab4f"/>
			<stop offset=".5" stop-color="#f6fbf8"/>
			<stop offset="1" stop-color="#00ab4f"/>
		</linearGradient>
		<linearGradient id="g40" x1="152.9" y1="31.9" x2="161.9" y2="10.3" gradientUnits="userSpaceOnUse">
			<stop offset="0" stop-color="#fda2c8"/>
			<stop offset="1" stop-color="#fffdfe"/>
		</linearGradient>
		<linearGradient id="g41" x1="153.8" y1="31.4" x2="175.3" y2="23" gradientUnits="userSpaceOnUse">
			<stop offset="0" stop-color="#fda2c8"/>
			<stop offset="1" stop-color="#fffdfe"/>
		</linearGradient>
		<linearGradient id="g42" x1="153.3" y1="31.7" x2="174.5" y2="41.7" gradientUnits="userSpaceOnUse">
			<stop offset="0" stop-color="#fda2c8"/>
			<stop offset="1" stop-color="#fffdfe"/>
		</linearGradient>
		<linearGradient id="g43" x1="154" y1="32" x2="161.4" y2="54.1" gradientUnits="userSpaceOnUse">
			<stop offset="0" stop-color="#fda2c8"/>
			<stop offset="1" stop-color="#fffdfe"/>
		</linearGradient>
		<linearGradient id="g44" x1="153.3" y1="31.9" x2="142.4" y2="52.5" gradientUnits="userSpaceOnUse">
			<stop offset="0" stop-color="#fda2c8"/>
			<stop offset="1" stop-color="#fffdfe"/>
		</linearGradient>
		<linearGradient id="g45" x1="153.3" y1="32.6" x2="130.8" y2="39" gradientUnits="userSpaceOnUse">
			<stop offset="0" stop-color="#fda2c8"/>
			<stop offset="1" stop-color="#fffdfe"/>
		</linearGradient>
		<linearGradient id="g46" x1="153.3" y1="31.6" x2="133.2" y2="19.8" gradientUnits="userSpaceOnUse">
			<stop offset="0" stop-color="#fda2c8"/>
			<stop offset="1" stop-color="#fffdfe"/>
		</linearGradient>
		<linearGradient id="g47" x1="152.5" y1="31.9" x2="147.2" y2="9.1" gradientUnits="userSpaceOnUse">
			<stop offset="0" stop-color="#fda2c8"/>
			<stop offset="1" stop-color="#fffdfe"/>
		</linearGradient>
		<linearGradient id="g48" x1="140.1" y1="70.6" x2="150.9" y2="70.6" gradientUnits="userSpaceOnUse">
			<stop offset="0" stop-color="#00ab4f"/>
			<stop offset=".5" stop-color="#f6fbf8"/>
			<stop offset="1" stop-color="#00ab4f"/>
		</linearGradient>
		<linearGradient id="g49" x1="133.9" y1="61.8" x2="123.1" y2="61.8" gradientUnits="userSpaceOnUse">
			<stop offset="0" stop-color="#00ab4f"/>
			<stop offset=".5" stop-color="#f6fbf8"/>
			<stop offset="1" stop-color="#00ab4f"/>
		</linearGradient>
		<linearGradient id="g50" x1="73" y1="67.2" x2="81.7" y2="76.8" gradientUnits="userSpaceOnUse">
			<stop offset="0" stop-color="#00ab4f"/>
			<stop offset=".5" stop-color="#f6fbf8"/>
			<stop offset="1" stop-color="#00ab4f"/>
		</linearGradient>
		<linearGradient id="g51" x1="69.3" y1="67.8" x2="78.3" y2="46.2" gradientUnits="userSpaceOnUse">
			<stop offset="0" stop-color="#fda2c8"/>
			<stop offset="1" stop-color="#fffdfe"/>
		</linearGradient>
		<linearGradient id="g52" x1="70.2" y1="67.3" x2="91.8" y2="59" gradientUnits="userSpaceOnUse">
			<stop offset="0" stop-color="#fda2c8"/>
			<stop offset="1" stop-color="#fffdfe"/>
		</linearGradient>
		<linearGradient id="g53" x1="69.8" y1="67.6" x2="90.9" y2="77.6" gradientUnits="userSpaceOnUse">
			<stop offset="0" stop-color="#fda2c8"/>
			<stop offset="1" stop-color="#fffdfe"/>
		</linearGradient>
		<linearGradient id="g54" x1="70.4" y1="67.9" x2="77.8" y2="90.1" gradientUnits="userSpaceOnUse">
			<stop offset="0" stop-color="#fda2c8"/>
			<stop offset="1" stop-color="#fffdfe"/>
		</linearGradient>
		<linearGradient id="g55" x1="69.7" y1="67.8" x2="58.8" y2="88.5" gradientUnits="userSpaceOnUse">
			<stop offset="0" stop-color="#fda2c8"/>
			<stop offset="1" stop-color="#fffdfe"/>
		</linearGradient>
		<linearGradient id="g56" x1="69.8" y1="68.6" x2="47.2" y2="75" gradientUnits="userSpaceOnUse">
			<stop offset="0" stop-color="#fda2c8"/>
			<stop offset="1" stop-color="#fffdfe"/>
		</linearGradient>
		<linearGradient id="g57" x1="69.8" y1="67.5" x2="49.6" y2="55.7" gradientUnits="userSpaceOnUse">
			<stop offset="0" stop-color="#fda2c8"/>
			<stop offset="1" stop-color="#fffdfe"/>
		</linearGradient>
		<linearGradient id="g58" x1="69" y1="67.8" x2="63.6" y2="45" gradientUnits="userSpaceOnUse">
			<stop offset="0" stop-color="#fda2c8"/>
			<stop offset="1" stop-color="#fffdfe"/>
		</linearGradient>
		<linearGradient id="g59" x1="56.6" y1="106.5" x2="67.3" y2="106.5" gradientUnits="userSpaceOnUse">
			<stop offset="0" stop-color="#00ab4f"/>
			<stop offset=".5" stop-color="#f6fbf8"/>
			<stop offset="1" stop-color="#00ab4f"/>
		</linearGradient>
		<linearGradient id="g60" x1="62.3" y1="125.7" x2="73" y2="125.7" gradientUnits="userSpaceOnUse">
			<stop offset="0" stop-color="#00ab4f"/>
			<stop offset=".5" stop-color="#f6fbf8"/>
			<stop offset="1" stop-color="#00ab4f"/>
		</linearGradient>
		<linearGradient id="g61" x1="115.7" y1="163.4" x2="113.6" y2="174.4" gradientUnits="userSpaceOnUse">
			<stop offset="0" stop-color="#00ab4f"/>
			<stop offset=".5" stop-color="#f6fbf8"/>
			<stop offset="1" stop-color="#00ab4f"/>
		</linearGradient>
		<linearGradient id="g62" x1="212.7" y1="122.3" x2="210.6" y2="133.3" gradientUnits="userSpaceOnUse">
			<stop offset="0" stop-color="#00ab4f"/>
			<stop offset=".5" stop-color="#f6fbf8"/>
			<stop offset="1" stop-color="#00ab4f"/>
		</linearGradient>
		<linearGradient id="g63" x1="95.4" y1="158.5" x2="88.6" y2="165.2" gradientUnits="userSpaceOnUse">
			<stop offset="0" stop-color="#00ab4f"/>
			<stop offset=".5" stop-color="#f6fbf8"/>
			<stop offset="1" stop-color="#00ab4f"/>
		</linearGradient>
		<linearGradient id="g64" x1="190.2" y1="120.3" x2="183.5" y2="127" gradientUnits="userSpaceOnUse">
			<stop offset="0" stop-color="#00ab4f"/>
			<stop offset=".5" stop-color="#f6fbf8"/>
			<stop offset="1" stop-color="#00ab4f"/>
		</linearGradient>
		<linearGradient id="g65" x1="110.9" y1="154.9" x2="114.9" y2="145.8" gradientUnits="userSpaceOnUse">
			<stop offset="0" stop-color="#00ab4f"/>
			<stop offset=".5" stop-color="#f6fbf8"/>
			<stop offset="1" stop-color="#00ab4f"/>
		</linearGradient>
		<linearGradient id="g66" x1="204.7" y1="113.4" x2="208.7" y2="104.4" gradientUnits="userSpaceOnUse">
			<stop offset="0" stop-color="#00ab4f"/>
			<stop offset=".5" stop-color="#f6fbf8"/>
			<stop offset="1" stop-color="#00ab4f"/>
		</linearGradient>
		<linearGradient id="g67" x1="147.9" y1="92.5" x2="158.6" y2="92.5" gradientUnits="userSpaceOnUse">
			<stop offset="0" stop-color="#00ab4f"/>
			<stop offset=".5" stop-color="#f6fbf8"/>
			<stop offset="1" stop-color="#00ab4f"/>
		</linearGradient>
		<linearGradient id="g68" x1="50.3" y1="97.7" x2="39.6" y2="97.7" gradientUnits="userSpaceOnUse">
			<stop offset="0" stop-color="#00ab4f"/>
			<stop offset=".5" stop-color="#f6fbf8"/>
			<stop offset="1" stop-color="#00ab4f"/>
		</linearGradient>
		<linearGradient id="g69" x1="53.1" y1="118.8" x2="42.4" y2="118.8" gradientUnits="userSpaceOnUse">
			<stop offset="0" stop-color="#00ab4f"/>
			<stop offset=".5" stop-color="#f6fbf8"/>
			<stop offset="1" stop-color="#00ab4f"/>
		</linearGradient>
		<linearGradient id="g70" x1="137.4" y1="85.5" x2="126.7" y2="85.5" gradientUnits="userSpaceOnUse">
			<stop offset="0" stop-color="#00ab4f"/>
			<stop offset=".5" stop-color="#f6fbf8"/>
			<stop offset="1" stop-color="#00ab4f"/>
		</linearGradient>
		<linearGradient id="g71" x1="210.2" y1="46.3" x2="328.7" y2="-14.2" gradientUnits="userSpaceOnUse">
			<stop offset="0" stop-color="#00ab4f"/>
			<stop offset=".5" stop-color="#f6fbf8"/>
			<stop offset="1" stop-color="#00ab4f"/>
		</linearGradient>
		<linearGradient id="g72" x1="220.8" y1="56.9" x2="296.5" y2="21.5" gradientUnits="userSpaceOnUse">
			<stop offset="0" stop-color="#00ab4f"/>
			<stop offset=".5" stop-color="#f6fbf8"/>
			<stop offset="1" stop-color="#00ab4f"/>
		</linearGradient>
		<linearGradient id="g73" x1="0" y1="0" x2="0" y2="0" gradientUnits="userSpaceOnUse">
			<stop offset="0" stop-color="#00ab4f"/>
			<stop offset=".5" stop-color="#f6fbf8"/>
			<stop offset="1" stop-color="#00ab4f"/>
		</linearGradient>
		<radialGradient id="g74" cx="154.4" cy="31.2" r="6.6" gradientUnits="userSpaceOnUse">
			<stop offset=".3" stop-color="#ff2e17"/>
			<stop offset=".4" stop-color="#fb3199"/>
			<stop offset="1" stop-color="#f98cc0"/>
		</radialGradient>
		<radialGradient id="g75" cx="154.5" cy="31.2" r="5.8" gradientUnits="userSpaceOnUse">
			<stop offset=".3" stop-color="#ff2e17"/>
			<stop offset=".4" stop-color="#fb3199"/>
			<stop offset="1" stop-color="#f98cc0"/>
		</radialGradient>
		<radialGradient id="g76" cx="154.5" cy="31.2" r="4.7" gradientUnits="userSpaceOnUse">
			<stop offset=".3" stop-color="#ff2e17"/>
			<stop offset=".4" stop-color="#fb3199"/>
			<stop offset="1" stop-color="#f98cc0"/>
		</radialGradient>
		<radialGradient id="g77" cx="154.6" cy="31.2" r="3.7" gradientUnits="userSpaceOnUse">
			<stop offset=".3" stop-color="#ff2e17"/>
			<stop offset=".4" stop-color="#fb3199"/>
			<stop offset="1" stop-color="#f98cc0"/>
		</radialGradient>
		<radialGradient id="g78" cx="154.6" cy="31.2" r="2.1" gradientUnits="userSpaceOnUse">
			<stop offset=".3" stop-color="#ff2e17"/>
			<stop offset=".4" stop-color="#fb3199"/>
			<stop offset="1" stop-color="#f98cc0"/>
		</radialGradient>
		<radialGradient id="g79" cx="70.6" cy="69.4" r="6.6" gradientUnits="userSpaceOnUse">
			<stop offset=".3" stop-color="#ff2e17"/>
			<stop offset=".4" stop-color="#fb3199"/>
			<stop offset="1" stop-color="#f98cc0"/>
		</radialGradient>
		<radialGradient id="g80" cx="70.6" cy="69.4" r="5.8" gradientUnits="userSpaceOnUse">
			<stop offset=".3" stop-color="#ff2e17"/>
			<stop offset=".4" stop-color="#fb3199"/>
			<stop offset="1" stop-color="#f98cc0"/>
		</radialGradient>
		<radialGradient id="g81" cx="70.6" cy="69.4" r="4.7" gradientUnits="userSpaceOnUse">
			<stop offset=".3" stop-color="#ff2e17"/>
			<stop offset=".4" stop-color="#fb3199"/>
			<stop offset="1" stop-color="#f98cc0"/>
		</radialGradient>
		<radialGradient id="g82" cx="70.7" cy="69.4" r="3.7" gradientUnits="userSpaceOnUse">
			<stop offset=".3" stop-color="#ff2e17"/>
			<stop offset=".4" stop-color="#fb3199"/>
			<stop offset="1" stop-color="#f98cc0"/>
		</radialGradient>
		<radialGradient id="g83" cx="70.7" cy="69.4" r="2.1" gradientUnits="userSpaceOnUse">
			<stop offset=".3" stop-color="#ff2e17"/>
			<stop offset=".4" stop-color="#fb3199"/>
			<stop offset="1" stop-color="#f98cc0"/>
		</radialGradient>
		<radialGradient id="g84" cx="261.1" cy="115.9" r="6.6" gradientUnits="userSpaceOnUse">
			<stop offset=".3" stop-color="#ff2e17"/>
			<stop offset=".4" stop-color="#fb3199"/>
			<stop offset="1" stop-color="#f98cc0"/>
		</radialGradient>
		<radialGradient id="g85" cx="261.1" cy="115.9" r="5.8" gradientUnits="userSpaceOnUse">
			<stop offset=".3" stop-color="#ff2e17"/>
			<stop offset=".4" stop-color="#fb3199"/>
			<stop offset="1" stop-color="#f98cc0"/>
		</radialGradient>
		<radialGradient id="g86" cx="261.1" cy="115.9" r="4.7" gradientUnits="userSpaceOnUse">
			<stop offset=".3" stop-color="#ff2e17"/>
			<stop offset=".4" stop-color="#fb3199"/>
			<stop offset="1" stop-color="#f98cc0"/>
		</radialGradient>
		<radialGradient id="g87" cx="261.2" cy="115.8" r="3.7" gradientUnits="userSpaceOnUse">
			<stop offset=".3" stop-color="#ff2e17"/>
			<stop offset=".4" stop-color="#fb3199"/>
			<stop offset="1" stop-color="#f98cc0"/>
		</radialGradient>
		<radialGradient id="g88" cx="261.2" cy="115.8" r="2.1" gradientUnits="userSpaceOnUse">
			<stop offset=".3" stop-color="#ff2e17"/>
			<stop offset=".4" stop-color="#fb3199"/>
			<stop offset="1" stop-color="#f98cc0"/>
		</radialGradient>
		<radialGradient id="g89" cx="169.5" cy="159.9" r="6.6" gradientUnits="userSpaceOnUse">
			<stop offset=".3" stop-color="#ff2e17"/>
			<stop offset=".4" stop-color="#fb3199"/>
			<stop offset="1" stop-color="#f98cc0"/>
		</radialGradient>
		<radialGradient id="g90" cx="169.5" cy="159.9" r="5.8" gradientUnits="userSpaceOnUse">
			<stop offset=".3" stop-color="#ff2e17"/>
			<stop offset=".4" stop-color="#fb3199"/>
			<stop offset="1" stop-color="#f98cc0"/>
		</radialGradient>
		<radialGradient id="g91" cx="169.5" cy="159.9" r="4.7" gradientUnits="userSpaceOnUse">
			<stop offset=".3" stop-color="#ff2e17"/>
			<stop offset=".4" stop-color="#fb3199"/>
			<stop offset="1" stop-color="#f98cc0"/>
		</radialGradient>
		<radialGradient id="g92" cx="169.6" cy="159.9" r="3.7" gradientUnits="userSpaceOnUse">
			<stop offset=".3" stop-color="#ff2e17"/>
			<stop offset=".4" stop-color="#fb3199"/>
			<stop offset="1" stop-color="#f98cc0"/>
		</radialGradient>
		<radialGradient id="g93" cx="169.6" cy="159.9" r="2.1" gradientUnits="userSpaceOnUse">
			<stop offset=".3" stop-color="#ff2e17"/>
			<stop offset=".4" stop-color="#fb3199"/>
			<stop offset="1" stop-color="#f98cc0"/>
		</radialGradient>
		<linearGradient id="g94" x1="161" y1="106.7" x2="42.5" y2="46.2" gradientUnits="userSpaceOnUse">
			<stop offset="0" stop-color="#00ab4f"/>
			<stop offset=".5" stop-color="#f6fbf8"/>
			<stop offset="1" stop-color="#00ab4f"/>
		</linearGradient>
		<linearGradient id="g95" x1="150.4" y1="117.2" x2="74.8" y2="81.8" gradientUnits="userSpaceOnUse">
			<stop offset="0" stop-color="#00ab4f"/>
			<stop offset=".5" stop-color="#f6fbf8"/>
			<stop offset="1" stop-color="#00ab4f"/>
		</linearGradient>
		<linearGradient id="g96" x1="0" y1="0" x2="0" y2="0" gradientUnits="userSpaceOnUse">
			<stop offset="0" stop-color="#00ab4f"/>
			<stop offset=".5" stop-color="#f6fbf8"/>
			<stop offset="1" stop-color="#00ab4f"/>
		</linearGradient>
	</defs>
	<style>
		.s0 { fill: none;stroke: #00ab4f;stroke-linecap: round;stroke-linejoin: round;stroke-width: 1.8 } 
		.s1 { fill: url(#g1);stroke: #00ab4f;stroke-linecap: round;stroke-linejoin: round;stroke-width: 1.8 } 
		.s2 { fill: url(#g2);stroke: #00ab4f;stroke-linecap: round;stroke-linejoin: round;stroke-width: 1.8 } 
		.s3 { fill: url(#g3);stroke: #00ab4f;stroke-linecap: round;stroke-linejoin: round;stroke-width: 1.8 } 
		.s4 { fill: none;stroke: #00ab4f;stroke-linecap: round;stroke-linejoin: round;stroke-width: .5 } 
		.s5 { fill: url(#g4);stroke: #00ab4f;stroke-width: .5 } 
		.s6 { fill: url(#g5);stroke: #00ab4f;stroke-linecap: round;stroke-linejoin: round;stroke-width: 1.8 } 
		.s7 { fill: url(#g6);stroke: #00ab4f;stroke-linecap: round;stroke-linejoin: round;stroke-width: 1.8 } 
		.s8 { fill: url(#g7);stroke: #00ab4f;stroke-linecap: round;stroke-linejoin: round;stroke-width: 1.8 } 
		.s9 { fill: url(#g8);stroke: #00ab4f;stroke-linecap: round;stroke-linejoin: round;stroke-width: 1.8 } 
		.s10 { fill: url(#g9);stroke: #00ab4f;stroke-linecap: round;stroke-linejoin: round;stroke-width: 1.8 } 
		.s11 { fill: url(#g10);stroke: #00ab4f;stroke-linecap: round;stroke-linejoin: round;stroke-width: 1.8 } 
		.s12 { fill: url(#g11);stroke: #00ab4f;stroke-linecap: round;stroke-linejoin: round;stroke-width: 1.8 } 
		.s13 { fill: url(#g12);stroke: #00ab4f;stroke-linecap: round;stroke-linejoin: round;stroke-width: 1.8 } 
		.s14 { fill: url(#g13);stroke: #00ab4f;stroke-linecap: round;stroke-linejoin: round;stroke-width: 1.8 } 
		.s15 { fill: url(#g14);stroke: #00ab4f;stroke-linecap: round;stroke-linejoin: round;stroke-width: 1.8 } 
		.s16 { fill: url(#g15);stroke: #00ab4f;stroke-linecap: round;stroke-linejoin: round;stroke-width: 1.8 } 
		.s17 { fill: url(#g16);stroke: #00ab4f;stroke-linecap: round;stroke-linejoin: round;stroke-width: 1.8 } 
		.s18 { fill: none;stroke: #00ab4f;stroke-linecap: round;stroke-linejoin: round;stroke-width: 6 } 
		.s19 { fill: url(#g17) } 
		.s20 { fill: url(#g18) } 
		.s21 { fill: url(#g19) } 
		.s22 { fill: url(#g20) } 
		.s23 { fill: url(#g21) } 
		.s24 { fill: url(#g22) } 
		.s25 { fill: url(#g23) } 
		.s26 { fill: url(#g24) } 
		.s27 { fill: url(#g25) } 
		.s28 { fill: url(#g26);stroke: #00ab4f;stroke-width: .5 } 
		.s29 { fill: url(#g27);stroke: #00ab4f;stroke-width: .5 } 
		.s30 { fill: url(#g28) } 
		.s31 { fill: url(#g29) } 
		.s32 { fill: url(#g30) } 
		.s33 { fill: url(#g31) } 
		.s34 { fill: url(#g32) } 
		.s35 { fill: url(#g33) } 
		.s36 { fill: url(#g34) } 
		.s37 { fill: url(#g35) } 
		.s38 { fill: url(#g36) } 
		.s39 { fill: url(#g37);stroke: #00ab4f;stroke-width: .5 } 
		.s40 { fill: url(#g38);stroke: #00ab4f;stroke-width: .5 } 
		.s41 { fill: url(#g39) } 
		.s42 { fill: url(#g40) } 
		.s43 { fill: url(#g41) } 
		.s44 { fill: url(#g42) } 
		.s45 { fill: url(#g43) } 
		.s46 { fill: url(#g44) } 
		.s47 { fill: url(#g45) } 
		.s48 { fill: url(#g46) } 
		.s49 { fill: url(#g47) } 
		.s50 { fill: url(#g48);stroke: #00ab4f;stroke-width: .5 } 
		.s51 { fill: url(#g49);stroke: #00ab4f;stroke-width: .5 } 
		.s52 { fill: url(#g50) } 
		.s53 { fill: url(#g51) } 
		.s54 { fill: url(#g52) } 
		.s55 { fill: url(#g53) } 
		.s56 { fill: url(#g54) } 
		.s57 { fill: url(#g55) } 
		.s58 { fill: url(#g56) } 
		.s59 { fill: url(#g57) } 
		.s60 { fill: url(#g58) } 
		.s61 { fill: url(#g59);stroke: #00ab4f;stroke-width: .5 } 
		.s62 { fill: url(#g60);stroke: #00ab4f;stroke-width: .5 } 
		.s63 { fill: url(#g61);stroke: #00ab4f;stroke-width: .5 } 
		.s64 { fill: url(#g62);stroke: #00ab4f;stroke-width: .5 } 
		.s65 { fill: url(#g63);stroke: #00ab4f;stroke-width: .5 } 
		.s66 { fill: url(#g64);stroke: #00ab4f;stroke-width: .5 } 
		.s67 { fill: url(#g65);stroke: #00ab4f;stroke-width: .5 } 
		.s68 { fill: url(#g66);stroke: #00ab4f;stroke-width: .5 } 
		.s69 { fill: url(#g67);stroke: #00ab4f;stroke-width: .5 } 
		.s70 { fill: url(#g68);stroke: #00ab4f;stroke-width: .5 } 
		.s71 { fill: url(#g69);stroke: #00ab4f;stroke-width: .5 } 
		.s72 { fill: url(#g70);stroke: #00ab4f;stroke-width: .5 } 
		.s73 { fill: url(#g71);stroke: #00ab4f;stroke-linecap: round;stroke-linejoin: round;stroke-width: 1.8 } 
		.s74 { fill: url(#g72);stroke: #00ab4f;stroke-linecap: round;stroke-linejoin: round;stroke-width: 1.8 } 
		.s75 { fill: url(#g73);stroke: #00ab4f;stroke-linecap: round;stroke-linejoin: round;stroke-width: 1.8 } 
		.s76 { fill: url(#g74) } 
		.s77 { fill: url(#g75) } 
		.s78 { fill: url(#g76) } 
		.s79 { fill: url(#g77) } 
		.s80 { fill: url(#g78) } 
		.s81 { fill: url(#g79) } 
		.s82 { fill: url(#g80) } 
		.s83 { fill: url(#g81) } 
		.s84 { fill: url(#g82) } 
		.s85 { fill: url(#g83) } 
		.s86 { fill: url(#g84) } 
		.s87 { fill: url(#g85) } 
		.s88 { fill: url(#g86) } 
		.s89 { fill: url(#g87) } 
		.s90 { fill: url(#g88) } 
		.s91 { fill: url(#g89) } 
		.s92 { fill: url(#g90) } 
		.s93 { fill: url(#g91) } 
		.s94 { fill: url(#g92) } 
		.s95 { fill: url(#g93) } 
		.s96 { fill: url(#g94);stroke: #00ab4f;stroke-linecap: round;stroke-linejoin: round;stroke-width: 1.8 } 
		.s97 { fill: url(#g95);stroke: #00ab4f;stroke-linecap: round;stroke-linejoin: round;stroke-width: 1.8 } 
		.s98 { fill: url(#g96);stroke: #00ab4f;stroke-linecap: round;stroke-linejoin: round;stroke-width: 1.8 } 
		.s99 { fill: #252323 } 
	</style>
	<g id="Layer 1">
		<g id="&lt;Group&gt;">
			<g id="&lt;Group&gt;">
				<path id="&lt;Path&gt;" class="s0" d="m179.1 98.2q6-3.9 10.6-2.8"/>
				<path id="&lt;Path&gt;" class="s1" d="m248.9 97.6q-20.9-21.7-59.2-2.2 4.9-10.5 18.9-16.7c6.4-2.9 13.9-4.1 20.6-1.5q13 5.2 19.7 20.4z"/>
				<path id="&lt;Path&gt;" class="s2" d="m248.9 97.6q-8.9-5.1-24.9 1.9-20.5 9.9-34.3-4.1 38.3-19.5 59.2 2.2z"/>
				<path id="&lt;Path&gt;" class="s3" d=""/>
			</g>
			<g id="&lt;Group&gt;">
				<path id="&lt;Path&gt;" class="s4" d="m55.5 102.1q2 0.3 3.1-0.5"/>
				<path id="&lt;Path&gt;" class="s5" d="m65.4 104q-4.4-0.1-6.8-2.4 2.1-5.1 8.6-4.8 5 0.2 6.8-2.2-0.1 4.8-3 7.6c-1.5 1.4-3.6 1.9-5.6 1.8z"/>
			</g>
			<g id="&lt;Group&gt;">
				<path id="&lt;Path&gt;" class="s0" d="m204.8 63.1q-6-3.9-10.6-2.7"/>
				<path id="&lt;Path&gt;" class="s6" d="m154.6 42.2c6.7-2.7 14.2-1.5 20.7 1.4q13.9 6.3 18.9 16.8-38.4-19.6-59.3 2.1 6.7-15.1 19.7-20.3z"/>
				<path id="&lt;Path&gt;" class="s7" d="m194.2 60.4q-13.9 13.9-34.4 4-15.9-7-24.9-1.9 20.9-21.7 59.3-2.1z"/>
				<path id="&lt;Path&gt;" class="s8" d=""/>
			</g>
			<g id="&lt;Group&gt;">
				<path id="&lt;Path&gt;" class="s0" d="m70 155.3q-6-3.9-10.6-2.7"/>
				<path id="&lt;Path&gt;" class="s9" d="m19.8 134.4c6.7-2.7 14.2-1.5 20.7 1.4q13.9 6.3 18.9 16.8-38.4-19.6-59.3 2.1 6.7-15.1 19.7-20.3z"/>
				<path id="&lt;Path&gt;" class="s10" d="m59.4 152.6q-13.9 13.9-34.4 4-16-7-24.9-1.9 20.9-21.7 59.3-2.1z"/>
				<path id="&lt;Path&gt;" class="s11" d=""/>
			</g>
			<g id="&lt;Group&gt;">
				<path id="&lt;Path&gt;" class="s0" d="m45.2 185.8q6.9-1.6 10.9 1"/>
				<path id="&lt;Path&gt;" class="s12" d="m111.1 209q-12.3-27.6-55-22.2 8.2-8.2 23.4-9.3c7.1-0.6 14.5 0.8 20 5.6q10.5 9.3 11.6 25.9z"/>
				<path id="&lt;Path&gt;" class="s13" d="m111.1 209q-6.7-7.9-24.1-6.7-22.6 2.3-30.9-15.5 42.7-5.4 55 22.2z"/>
				<path id="&lt;Path&gt;" class="s14" d=""/>
			</g>
			<g id="&lt;Group&gt;">
				<path id="&lt;Path&gt;" class="s0" d="m108.7 133.9q7-1.6 10.9 1.1"/>
				<path id="&lt;Path&gt;" class="s15" d="m174.7 157.1q-12.3-27.5-55.1-22.1 8.2-8.2 23.5-9.4c7-0.5 14.5 0.9 19.9 5.7q10.5 9.3 11.7 25.8z"/>
				<path id="&lt;Path&gt;" class="s16" d="m174.7 157.1q-6.7-7.8-24.1-6.7-22.7 2.4-31-15.4 42.8-5.4 55.1 22.1z"/>
				<path id="&lt;Path&gt;" class="s17" d=""/>
			</g>
			<path id="&lt;Path&gt;" class="s18" d="m220.1 24.4c-15.2 41.3-36.7 81.8-79.7 98.9-21.4 8.6-45.3 12-64.6 25.3-21.4 14.7-34.3 41.2-41.2 65.5"/>
			<g id="&lt;Group&gt;">
				<path id="&lt;Path&gt;" class="s19" d="m177.3 97.7c0-0.3 0.2-0.5 0.5-0.7 0.5-0.2 1 0 1.3 0.5 6.1 12.3 16.6 18.6 28.1 21.5 12.2 3.1 25.5 2.4 35.7 0.8 5.2-0.8 9.5-1.8 12.6-2.6 3.1-0.7 4.9-1.3 4.9-1.3 0.5-0.2 1 0.1 1.2 0.6 0.2 0.5-0.1 1.1-0.6 1.2-0.1 0.1-29.2 9.6-54.3 3.2-11.9-3-22.9-9.6-29.4-22.6q-0.1-0.3 0-0.6z"/>
				<path id="&lt;Mesh&gt;" class="s20" d="m260.7 116.8c1.1-2.7 2.6-5.1 4.4-7.2 4.7-2.7 12.3 0.5 18.9 3.8-0.7 2-4.3 6.7-5.8 8.6-0.9 1.1-3.7 3.9-4.6 4.8-8.9-2-12.9-10-12.9-10zm24.6 9.1c-4.6 1.6-8.4 1.6-11.7 0.9 0.9-0.9 3.7-3.7 4.6-4.8 1.5-1.9 5.1-6.6 5.8-8.6 3.1 1.5 6.1 3 8.8 5.3 0.2 1.6-0.1 3.2-1.5 4.5-0.8 0.7-1.7 1.2-2.6 1.6-1.1 0.4-2.3 0.8-3.4 1.1zm-20.2-16.3c1.5-1.7 3.2-3.2 5-4.5 7.6-5.3 16.9-5.9 20.5-2.1-1 1.5-3.2 4.6-3.9 6-0.3 1.1-2.3 3.1-2.7 4.4-6.6-3.3-14.2-6.5-18.9-3.8zm18.9 3.8c0.4-1.3 2.4-3.3 2.7-4.4 0.7-1.4 2.9-4.5 3.9-6 1 1.1 1.6 2.5 1.6 4.3-0.1 2-2.1 3.3-2 5.1 0.1 1.1 1.2 2.7 1.7 3.6 0.5 0.8 0.8 1.7 0.9 2.7-2.7-2.3-5.7-3.8-8.8-5.3z"/>
				<path id="&lt;Mesh&gt;" class="s21" d="m260.7 116.8c-1.2-2.7-1.9-5.5-2.2-8.2 1.3-5.2 8.9-8.5 15.8-11 1 1.8 1.9 7.8 2.2 10.1 0.3 1.4 0.3 5.4 0.3 6.7-7.6 5.1-16.1 2.4-16.1 2.4zm23.6-11.5c-2.1 4.4-4.7 7.2-7.5 9.1 0-1.3 0-5.3-0.3-6.7-0.3-2.3-1.2-8.3-2.2-10.1 3.3-1.2 6.4-2.3 9.9-2.7 1.3 0.9 2.2 2.3 2.2 4.2 0 1-0.3 2-0.6 2.9-0.4 1.2-1 2.2-1.5 3.3zm-25.8 3.3c-0.2-2.3-0.1-4.5 0.2-6.7 1.4-9.2 7.4-16.3 12.7-16.3 0.4 1.8 1.1 5.5 1.6 7 0.6 1 0.6 3.8 1.3 5-6.9 2.5-14.5 5.8-15.8 11zm15.8-11c-0.7-1.2-0.7-4-1.3-5-0.5-1.5-1.2-5.2-1.6-7 1.5 0.1 2.9 0.6 4.1 1.8 1.5 1.5 1 3.8 2.4 5 0.8 0.7 2.8 1 3.7 1.2 1 0.3 1.9 0.7 2.6 1.3-3.5 0.4-6.6 1.5-9.9 2.7z"/>
				<path id="&lt;Mesh&gt;" class="s22" d="m260.7 116.8c-2.8-1-5.3-2.4-7.4-4.1-2.9-4.5-0.1-12.3 2.9-19 2 0.5 6.9 4 8.9 5.4 1.1 0.8 4 3.5 5 4.3-1.6 9.1-9.4 13.4-9.4 13.4zm7.9-25c1.8 4.5 2 8.4 1.5 11.6-1-0.8-3.9-3.5-5-4.3-2-1.4-6.9-4.9-8.9-5.4 1.4-3.2 2.7-6.3 4.9-9.1 1.5-0.3 3.2 0 4.5 1.4 0.7 0.7 1.3 1.6 1.7 2.4 0.5 1.1 0.9 2.3 1.3 3.4zm-15.3 20.9c-1.9-1.4-3.4-3-4.7-4.7-5.7-7.4-6.7-16.7-3.1-20.5 1.6 1 4.8 3 6.2 3.6 1.1 0.4 3.2 2.2 4.5 2.6-3 6.7-5.8 14.5-2.9 19zm2.9-19c-1.3-0.4-3.4-2.2-4.5-2.6-1.4-0.6-4.6-2.6-6.2-3.6 1.1-1 2.4-1.7 4.2-1.7 2-0.1 3.4 1.9 5.2 1.7 1.1-0.1 2.6-1.3 3.5-1.9 0.8-0.4 1.7-0.8 2.7-1-2.2 2.8-3.5 5.9-4.9 9.1z"/>
				<path id="&lt;Mesh&gt;" class="s23" d="m260.7 116.8c-2.7 1.4-5.4 2.2-8.1 2.5-5.3-1-9-8.4-11.8-15.2 1.8-1.1 7.7-2.3 10.1-2.7 1.4-0.3 5.3-0.5 6.6-0.6 5.4 7.4 3.2 16 3.2 16zm-12.6-23.1c4.4 1.9 7.4 4.4 9.4 7.1-1.3 0.1-5.2 0.3-6.6 0.6-2.4 0.4-8.3 1.6-10.1 2.7-1.3-3.2-2.6-6.3-3.1-9.8 0.8-1.4 2.2-2.3 4.1-2.4 1 0 2 0.2 2.9 0.5 1.2 0.4 2.3 0.9 3.4 1.3zm4.5 25.6c-2.3 0.4-4.6 0.4-6.7 0.2-9.3-1-16.7-6.7-16.9-12 1.8-0.4 5.5-1.4 6.9-1.9 1-0.6 3.8-0.8 4.9-1.5 2.8 6.8 6.5 14.2 11.8 15.2zm-11.8-15.2c-1.1 0.7-3.9 0.9-4.9 1.5-1.4 0.5-5.1 1.5-6.9 1.9 0-1.4 0.5-2.9 1.6-4.2 1.4-1.5 3.7-1.1 4.9-2.5 0.7-0.9 0.8-2.9 1.1-3.9 0.2-0.9 0.5-1.8 1.1-2.6 0.5 3.5 1.8 6.6 3.1 9.8z"/>
				<path id="&lt;Mesh&gt;" class="s24" d="m260.7 116.8c-0.9 2.9-2.2 5.4-3.8 7.6-4.4 3.1-12.3 0.6-19.1-2 0.4-2.1 3.6-7.2 4.9-9.2 0.8-1.2 3.3-4.2 4.2-5.2 9.1 1.2 13.8 8.8 13.8 8.8zm-25.4-6.8c4.4-2 8.3-2.4 11.6-2-0.9 1-3.4 4-4.2 5.2-1.3 2-4.5 7.1-4.9 9.2-3.3-1.3-6.4-2.5-9.3-4.5-0.4-1.6-0.2-3.2 1.1-4.6 0.7-0.8 1.5-1.4 2.4-1.8 1.1-0.6 2.2-1 3.3-1.5zm21.6 14.4c-1.3 1.9-2.9 3.5-4.5 4.9-7.2 6.1-16.3 7.5-20.3 4 0.9-1.6 2.7-4.9 3.3-6.3 0.3-1.2 2.1-3.3 2.4-4.6 6.8 2.6 14.7 5.1 19.1 2zm-19.1-2c-0.3 1.3-2.1 3.4-2.4 4.6-0.6 1.4-2.4 4.7-3.3 6.3-1.1-1-1.8-2.4-1.9-4.1-0.2-2 1.7-3.5 1.4-5.3-0.1-1.1-1.4-2.5-2-3.4-0.5-0.8-0.9-1.7-1.1-2.6 2.9 2 6 3.2 9.3 4.5z"/>
				<path id="&lt;Mesh&gt;" class="s25" d="m260.7 116.8c1.4 2.6 2.4 5.3 2.9 8-0.9 5.3-8.1 9.3-14.7 12.4-1.2-1.7-2.7-7.6-3.2-9.9-0.4-1.4-0.8-5.3-0.9-6.6 7.1-5.7 15.9-3.9 15.9-3.9zm-22.5 13.7c1.6-4.6 4-7.7 6.6-9.8 0.1 1.3 0.5 5.2 0.9 6.6 0.5 2.3 2 8.2 3.2 9.9-3.2 1.5-6.2 2.9-9.7 3.6-1.4-0.8-2.4-2.1-2.5-4-0.1-1 0-2 0.3-3 0.3-1.1 0.8-2.2 1.2-3.3zm25.4-5.7c0.4 2.2 0.5 4.5 0.4 6.6-0.6 9.4-5.9 17-11.2 17.4-0.5-1.7-1.6-5.3-2.3-6.7-0.6-1-0.9-3.8-1.6-4.9 6.6-3.1 13.8-7.1 14.7-12.4zm-14.7 12.4c0.7 1.1 1 3.9 1.6 4.9 0.7 1.4 1.8 5 2.3 6.7-1.5 0.2-2.9-0.3-4.3-1.4-1.5-1.2-1.3-3.6-2.7-4.7-0.9-0.6-2.9-0.7-3.9-0.9-1-0.2-1.9-0.5-2.7-1 3.5-0.7 6.5-2.1 9.7-3.6z"/>
				<path id="&lt;Mesh&gt;" class="s26" d="m260.7 116.8c2.9 0.8 5.4 2 7.7 3.4 3.3 4.3 1.2 12.3-1.2 19.2-2-0.3-7.2-3.3-9.3-4.5-1.2-0.7-4.3-3.1-5.4-3.9 0.8-9.1 8.2-14.2 8.2-14.2zm-5.7 25.7c-2.1-4.3-2.7-8.2-2.5-11.5 1.1 0.8 4.2 3.2 5.4 3.9 2.1 1.2 7.3 4.2 9.3 4.5-1.1 3.3-2.2 6.5-4 9.5-1.6 0.5-3.2 0.3-4.6-0.9-0.9-0.7-1.5-1.5-2-2.3-0.6-1-1.1-2.2-1.6-3.2zm13.4-22.3c2 1.3 3.7 2.7 5.1 4.3 6.4 6.9 8.2 16 4.9 20.1-1.6-0.8-5-2.5-6.5-3-1.1-0.2-3.3-1.9-4.7-2.2 2.4-6.9 4.5-14.9 1.2-19.2zm-1.2 19.2c1.4 0.3 3.6 2 4.7 2.2 1.5 0.5 4.9 2.2 6.5 3-0.9 1.2-2.3 1.9-4 2.1-2 0.3-3.5-1.5-5.3-1.2-1.1 0.2-2.5 1.6-3.3 2.2-0.8 0.5-1.7 1-2.6 1.2 1.8-3 2.9-6.2 4-9.5z"/>
				<path id="&lt;Mesh&gt;" class="s27" d="m260.7 116.8c2.5-1.5 5.2-2.6 7.8-3.2 5.3 0.6 9.7 7.6 13.1 14.1-1.7 1.2-7.5 2.9-9.8 3.6-1.3 0.4-5.2 1-6.5 1.2-6.1-6.9-4.6-15.7-4.6-15.7zm14.6 21.9c-4.6-1.5-7.8-3.7-10-6.2 1.3-0.2 5.2-0.8 6.5-1.2 2.3-0.7 8.1-2.4 9.8-3.6 1.6 3.1 3.1 6.1 4 9.5-0.7 1.4-2 2.5-3.8 2.7-1.1 0.1-2.1 0-3.1-0.2-1.1-0.3-2.3-0.7-3.4-1zm-6.8-25.1c2.2-0.6 4.5-0.8 6.6-0.8 9.4 0.2 17.2 5.2 17.9 10.4-1.7 0.6-5.3 1.9-6.6 2.6-1 0.7-3.7 1.1-4.8 1.9-3.4-6.5-7.8-13.5-13.1-14.1zm13.1 14.1c1.1-0.8 3.8-1.2 4.8-1.9 1.3-0.7 4.9-2 6.6-2.6 0.2 1.5-0.2 2.9-1.2 4.3-1.2 1.7-3.6 1.5-4.6 3-0.6 1-0.6 2.9-0.7 3.9-0.2 1-0.4 1.9-0.9 2.8-0.9-3.4-2.4-6.4-4-9.5z"/>
				<g id="&lt;Group&gt;">
					<path id="&lt;Path&gt;" class="s4" d="m202.9 118.8q1-1.8 2.3-2.1"/>
					<path id="&lt;Path&gt;" class="s28" d="m213 107q4-0.4 7.6 2.7-2.9-0.2-6.1 3.6-3.9 5.2-9.3 3.4-0.1-3.3 2.7-6.7c1.3-1.5 3-2.8 5.1-3z"/>
				</g>
				<g id="&lt;Group&gt;">
					<path id="&lt;Path&gt;" class="s4" d="m211.3 121.4q0.1 2 1.1 2.9"/>
					<path id="&lt;Path&gt;" class="s29" d="m211.5 131.5q-0.8-4.3 0.9-7.2 5.5 1 6.5 7.4 1 4.9 3.6 6.2-4.6 0.9-7.9-1.3c-1.8-1.2-2.7-3.1-3.1-5.1z"/>
				</g>
			</g>
			<g id="&lt;Group&gt;">
				<path id="&lt;Path&gt;" class="s30" d="m85.5 141.8c0.1-0.3 0.3-0.5 0.6-0.7 0.4-0.2 1 0 1.3 0.5 6.1 12.3 16.6 18.6 28.1 21.5 12.1 3.1 25.5 2.4 35.7 0.8 5.2-0.8 9.5-1.8 12.6-2.6 3.1-0.7 4.9-1.3 4.9-1.3 0.5-0.2 1 0.1 1.2 0.6 0.2 0.5-0.1 1.1-0.6 1.2-0.1 0.1-29.2 9.6-54.3 3.2-11.9-3-22.9-9.6-29.4-22.6q-0.1-0.3-0.1-0.6z"/>
				<path id="&lt;Mesh&gt;" class="s31" d="m169 160.9c1.1-2.7 2.6-5.2 4.4-7.2 4.7-2.7 12.3 0.5 18.9 3.8-0.7 2-4.3 6.7-5.8 8.6-0.9 1.1-3.7 3.9-4.6 4.8-9-2-12.9-10-12.9-10zm24.6 9.1c-4.6 1.6-8.5 1.6-11.7 0.9 0.9-0.9 3.7-3.7 4.6-4.8 1.5-1.9 5.1-6.6 5.8-8.6 3.1 1.5 6.1 3 8.8 5.3 0.2 1.6-0.1 3.2-1.5 4.5-0.8 0.7-1.7 1.2-2.6 1.5-1.1 0.5-2.3 0.9-3.4 1.2zm-20.2-16.3c1.5-1.7 3.2-3.2 4.9-4.5 7.7-5.3 17-5.9 20.6-2.1-1 1.5-3.2 4.6-3.9 6-0.3 1.1-2.3 3.1-2.7 4.4-6.6-3.3-14.2-6.5-18.9-3.8zm18.9 3.8c0.4-1.3 2.4-3.3 2.7-4.4 0.7-1.4 2.9-4.5 3.9-6 1 1.1 1.6 2.5 1.6 4.3-0.1 2-2.1 3.3-2 5.1 0 1.1 1.2 2.7 1.7 3.6 0.4 0.8 0.8 1.7 0.9 2.7-2.7-2.3-5.7-3.8-8.8-5.3z"/>
				<path id="&lt;Mesh&gt;" class="s32" d="m169 160.9c-1.3-2.7-1.9-5.5-2.2-8.2 1.3-5.2 8.9-8.5 15.8-11 1 1.8 1.9 7.8 2.2 10.1 0.2 1.4 0.3 5.4 0.3 6.7-7.6 5.1-16.1 2.4-16.1 2.4zm23.6-11.5c-2.1 4.3-4.7 7.2-7.5 9.1 0-1.3-0.1-5.3-0.3-6.7-0.3-2.3-1.2-8.3-2.2-10.1 3.3-1.2 6.4-2.3 9.9-2.8 1.3 1 2.2 2.4 2.2 4.3 0 1-0.3 2-0.6 2.9-0.4 1.2-1 2.2-1.5 3.3zm-25.8 3.3c-0.2-2.3-0.1-4.5 0.2-6.7 1.4-9.2 7.4-16.3 12.7-16.3 0.4 1.8 1.1 5.5 1.6 7 0.6 1 0.6 3.8 1.3 5-6.9 2.5-14.5 5.8-15.8 11zm15.8-11c-0.7-1.2-0.7-4-1.3-5-0.5-1.5-1.2-5.2-1.6-7 1.5 0.1 2.9 0.6 4.1 1.8 1.5 1.4 1 3.8 2.3 5 0.9 0.7 2.8 0.9 3.8 1.2 0.9 0.3 1.8 0.7 2.6 1.2-3.5 0.5-6.6 1.6-9.9 2.8z"/>
				<path id="&lt;Mesh&gt;" class="s33" d="m169 160.9c-2.9-1-5.3-2.4-7.4-4.1-2.9-4.5-0.1-12.3 2.9-19 2 0.5 6.9 4 8.9 5.4 1.1 0.8 4 3.5 5 4.3-1.6 9.1-9.4 13.4-9.4 13.4zm7.9-25.1c1.8 4.6 2 8.5 1.5 11.7-1-0.8-3.9-3.5-5-4.3-2-1.4-6.9-4.9-8.9-5.4 1.4-3.2 2.7-6.3 4.8-9.1 1.6-0.3 3.3 0 4.6 1.4 0.7 0.7 1.3 1.5 1.7 2.4 0.5 1.1 0.9 2.3 1.3 3.3zm-15.3 21c-1.9-1.4-3.4-3-4.8-4.7-5.7-7.4-6.6-16.7-3-20.5 1.6 1 4.8 3 6.2 3.6 1.1 0.3 3.2 2.2 4.5 2.6-3 6.7-5.8 14.5-2.9 19zm2.9-19c-1.3-0.4-3.4-2.3-4.5-2.6-1.4-0.6-4.6-2.6-6.2-3.6 1.1-1 2.4-1.7 4.2-1.7 2-0.1 3.4 1.9 5.2 1.7 1.1-0.1 2.6-1.3 3.5-1.9 0.8-0.4 1.7-0.8 2.6-1-2.1 2.8-3.4 5.9-4.8 9.1z"/>
				<path id="&lt;Mesh&gt;" class="s34" d="m169 160.9c-2.7 1.3-5.4 2.2-8.1 2.5-5.3-1-9-8.4-11.8-15.2 1.8-1.1 7.7-2.3 10.1-2.7 1.4-0.3 5.3-0.5 6.6-0.6 5.4 7.4 3.2 16 3.2 16zm-12.7-23.1c4.5 1.9 7.5 4.4 9.5 7.1-1.3 0.1-5.2 0.3-6.6 0.6-2.4 0.4-8.3 1.6-10.1 2.7-1.3-3.2-2.6-6.3-3.2-9.8 0.9-1.4 2.3-2.3 4.2-2.4 1 0 2 0.2 2.9 0.5 1.2 0.4 2.3 0.9 3.3 1.3zm4.6 25.6c-2.3 0.4-4.6 0.4-6.7 0.2-9.3-1-16.7-6.7-16.9-12 1.8-0.4 5.5-1.4 6.9-1.9 1-0.6 3.8-0.8 4.9-1.5 2.8 6.8 6.5 14.2 11.8 15.2zm-11.8-15.2c-1.1 0.7-3.9 0.9-4.9 1.5-1.4 0.5-5.1 1.5-6.9 1.9 0-1.5 0.5-2.9 1.6-4.2 1.4-1.5 3.7-1.1 4.9-2.5 0.7-0.9 0.8-2.9 1-3.9 0.3-0.9 0.6-1.8 1.1-2.6 0.6 3.5 1.9 6.6 3.2 9.8z"/>
				<path id="&lt;Mesh&gt;" class="s35" d="m169 160.9c-0.9 2.9-2.2 5.4-3.8 7.6-4.4 3.1-12.3 0.6-19.1-2 0.4-2.1 3.6-7.2 4.9-9.2 0.8-1.2 3.3-4.2 4.2-5.2 9.1 1.2 13.8 8.8 13.8 8.8zm-25.4-6.8c4.4-2 8.3-2.4 11.6-2-0.9 1-3.4 4-4.2 5.2-1.3 2-4.5 7.1-4.9 9.2-3.3-1.3-6.4-2.5-9.3-4.5-0.4-1.6-0.2-3.2 1.1-4.6 0.7-0.8 1.5-1.4 2.4-1.8 1.1-0.6 2.2-1 3.3-1.5zm21.6 14.4c-1.3 1.9-2.9 3.5-4.5 4.9-7.2 6.1-16.4 7.5-20.3 4 0.9-1.6 2.7-4.9 3.3-6.3 0.3-1.2 2.1-3.3 2.4-4.6 6.8 2.6 14.7 5.1 19.1 2zm-19.1-2c-0.3 1.3-2.1 3.4-2.4 4.6-0.6 1.4-2.4 4.7-3.3 6.3-1.1-1-1.8-2.4-2-4.1-0.1-2 1.8-3.5 1.5-5.3-0.1-1.1-1.4-2.5-2-3.4-0.5-0.8-0.9-1.7-1.1-2.6 2.9 2 6 3.2 9.3 4.5z"/>
				<path id="&lt;Mesh&gt;" class="s36" d="m169 160.9c1.4 2.6 2.3 5.3 2.8 8-0.8 5.3-8 9.3-14.7 12.4-1.1-1.7-2.6-7.6-3.1-9.9-0.4-1.4-0.8-5.3-0.9-6.6 7.1-5.7 15.9-3.9 15.9-3.9zm-22.5 13.7c1.6-4.6 4-7.7 6.6-9.8 0.1 1.3 0.5 5.2 0.9 6.6 0.5 2.3 2 8.2 3.1 9.9-3.1 1.5-6.2 2.9-9.6 3.6-1.4-0.8-2.4-2.1-2.5-4-0.1-1 0-2 0.3-3 0.3-1.1 0.8-2.2 1.2-3.3zm25.3-5.7c0.5 2.2 0.6 4.5 0.5 6.6-0.6 9.4-5.9 17-11.2 17.4-0.5-1.7-1.6-5.3-2.3-6.7-0.6-1-0.9-3.8-1.7-4.9 6.7-3.1 13.9-7.1 14.7-12.4zm-14.7 12.4c0.8 1.1 1.1 3.9 1.7 4.9 0.7 1.4 1.8 5 2.3 6.7-1.5 0.2-2.9-0.3-4.3-1.4-1.5-1.3-1.3-3.6-2.7-4.7-1-0.6-2.9-0.7-3.9-0.9-1-0.2-1.9-0.5-2.7-1 3.4-0.7 6.5-2.1 9.6-3.6z"/>
				<path id="&lt;Mesh&gt;" class="s37" d="m169 160.9c2.9 0.8 5.4 2 7.7 3.4 3.3 4.3 1.2 12.3-1.2 19.2-2-0.3-7.2-3.3-9.3-4.5-1.2-0.7-4.4-3.1-5.4-3.9 0.8-9.1 8.2-14.2 8.2-14.2zm-5.7 25.7c-2.2-4.3-2.8-8.2-2.5-11.5 1 0.8 4.2 3.2 5.4 3.9 2.1 1.2 7.3 4.2 9.3 4.5-1.1 3.3-2.2 6.5-4 9.5-1.6 0.5-3.2 0.3-4.7-0.9-0.8-0.7-1.4-1.5-1.9-2.3-0.6-1.1-1.1-2.2-1.6-3.2zm13.4-22.3c1.9 1.3 3.7 2.7 5.1 4.3 6.4 6.9 8.2 16 4.9 20.1-1.6-0.8-5-2.5-6.5-3-1.1-0.2-3.3-1.9-4.7-2.2 2.4-6.9 4.5-14.9 1.2-19.2zm-1.2 19.2c1.4 0.3 3.6 2 4.7 2.2 1.5 0.5 4.9 2.2 6.5 3-0.9 1.2-2.3 1.9-4 2.1-2 0.3-3.5-1.5-5.3-1.2-1.1 0.2-2.5 1.6-3.3 2.1-0.8 0.6-1.7 1.1-2.6 1.3 1.8-3 2.9-6.2 4-9.5z"/>
				<path id="&lt;Mesh&gt;" class="s38" d="m169 160.9c2.5-1.6 5.1-2.6 7.8-3.2 5.3 0.6 9.7 7.6 13.1 14.1-1.7 1.2-7.5 2.9-9.8 3.6-1.3 0.4-5.2 1-6.5 1.2-6.1-6.9-4.6-15.7-4.6-15.7zm14.6 21.9c-4.6-1.5-7.8-3.7-10-6.2 1.3-0.2 5.2-0.8 6.5-1.2 2.3-0.7 8.1-2.4 9.8-3.6 1.6 3.1 3.1 6 4 9.5-0.7 1.4-2 2.5-3.9 2.7-1 0.1-2 0-3-0.2-1.1-0.3-2.3-0.7-3.4-1zm-6.8-25.1c2.2-0.6 4.5-0.8 6.6-0.8 9.4 0.2 17.2 5.2 17.9 10.4-1.7 0.6-5.3 1.9-6.6 2.6-1 0.7-3.8 1.1-4.8 1.9-3.4-6.5-7.8-13.5-13.1-14.1zm13.1 14.1c1-0.8 3.8-1.2 4.8-1.9 1.3-0.7 4.9-2 6.6-2.6 0.2 1.5-0.2 2.9-1.2 4.3-1.2 1.7-3.6 1.5-4.6 3-0.6 1-0.6 2.9-0.7 3.9-0.2 1-0.4 1.9-0.9 2.8-0.9-3.5-2.4-6.4-4-9.5z"/>
				<g id="&lt;Group&gt;">
					<path id="&lt;Path&gt;" class="s4" d="m111.2 162.9q1-1.8 2.3-2.1"/>
					<path id="&lt;Path&gt;" class="s39" d="m121.3 151.1q4-0.4 7.6 2.6-2.9-0.1-6.1 3.7-3.9 5.2-9.3 3.4-0.1-3.3 2.7-6.7c1.3-1.5 3-2.8 5.1-3z"/>
				</g>
				<g id="&lt;Group&gt;">
					<path id="&lt;Path&gt;" class="s4" d="m119.6 165.5q0.1 2 1.1 2.9"/>
					<path id="&lt;Path&gt;" class="s40" d="m119.8 175.6q-0.8-4.3 0.9-7.2 5.5 1 6.5 7.4 1 4.9 3.6 6.2-4.6 0.9-8-1.3c-1.7-1.2-2.6-3.1-3-5.1z"/>
				</g>
			</g>
			<g id="&lt;Group&gt;">
				<path id="&lt;Path&gt;" class="s41" d="m150.8 117.2c-11-9.4-14.7-21.8-14.7-34 0-25.9 16.4-51.8 16.4-51.8 0.3-0.5 0.9-0.6 1.4-0.3 0.4 0.3 0.5 0.9 0.3 1.3 0 0-1 1.6-2.6 4.4-1.5 2.8-3.5 6.8-5.5 11.6-4 9.5-8.1 22.2-8.1 34.8 0.1 11.9 3.6 23.5 14 32.5 0.5 0.4 0.5 1 0.2 1.4-0.2 0.2-0.5 0.4-0.8 0.4q-0.3 0-0.6-0.3z"/>
				<path id="&lt;Mesh&gt;" class="s42" d="m146.8 16.9c1.1-0.7 4.5-2.7 5.8-3.3 2.2-0.9 7.7-3.3 9.8-3.5 1.6 7.2 2.7 15.4-1 19.3-2.4 1.2-5.1 2.1-8.1 2.5 0 0-6.8-5.8-6.5-15zm5.7-14.1c0.6-0.8 1.3-1.5 2.2-2.1 1.6-1.1 3.2-1 4.7-0.4 1.5 3.2 2.2 6.4 3 9.8-2.1 0.2-7.6 2.6-9.8 3.5-1.3 0.6-4.7 2.6-5.8 3.3 0.1-3.3 1.1-7.1 3.8-11.2 0.6-0.9 1.2-2 1.9-2.9zm9.9 7.3c1.3 0 3.7-1.5 4.9-1.6 1.5-0.3 5-1.6 6.7-2.3 2.9 4.5 0 13.4-7 19.5-1.7 1.4-3.5 2.6-5.6 3.7 3.7-3.9 2.6-12.1 1-19.3zm-3-9.8c0.9 0.3 1.7 0.9 2.4 1.5 0.8 0.7 2 2.2 3.1 2.5 1.7 0.6 3.5-1.1 5.4-0.6 1.7 0.4 2.9 1.3 3.7 2.5-1.7 0.7-5.2 2-6.7 2.3-1.2 0.1-3.6 1.6-4.9 1.6-0.8-3.4-1.5-6.6-3-9.8z"/>
				<path id="&lt;Mesh&gt;" class="s43" d="m159.7 16.8c1.2 0.4 5 1.4 6.3 1.9 2.2 1 7.8 3.3 9.3 4.7-4.1 6.1-9.2 12.6-14.6 12.6-2.5-0.9-5-2.3-7.4-4.1 0 0-0.4-8.9 6.4-15.1zm14.1-5.6c1-0.1 2-0.1 3.1 0.1 1.8 0.4 2.9 1.7 3.5 3.2-1.3 3.3-3.1 6-5.1 8.9-1.5-1.4-7.1-3.7-9.3-4.7-1.3-0.5-5.1-1.5-6.3-1.9 2.4-2.2 5.9-4 10.6-5 1.2-0.2 2.3-0.5 3.5-0.6zm1.5 12.2c1 0.9 3.7 1.7 4.6 2.5 1.2 0.8 4.7 2.5 6.3 3.3-1.3 5.1-9.6 9.2-18.9 8.3-2.2-0.3-4.4-0.7-6.6-1.5 5.4 0 10.5-6.5 14.6-12.6zm5.1-8.9c0.3 0.8 0.5 1.8 0.5 2.8 0.1 1-0.2 2.9 0.3 3.9 0.9 1.6 3.2 1.8 4.3 3.5 0.8 1.5 1 3 0.7 4.5-1.6-0.8-5.1-2.5-6.3-3.3-0.9-0.8-3.6-1.6-4.6-2.5 2-2.9 3.8-5.6 5.1-8.9z"/>
				<path id="&lt;Mesh&gt;" class="s44" d="m168.6 26.1c0.6 1.1 2.5 4.6 3 5.9 0.9 2.2 3 7.8 3 9.9-7.2 1.3-15.4 2.1-19.1-1.8-1.1-2.5-1.9-5.2-2.2-8.2 0 0 6.2-6.5 15.3-5.8zm13.9 6.3c0.7 0.7 1.4 1.4 2 2.3 0.9 1.6 0.8 3.3 0.1 4.7-3.2 1.4-6.5 1.9-10 2.5 0-2.1-2.1-7.7-3-9.9-0.5-1.3-2.4-4.8-3-5.9 3.3 0.2 7 1.4 11 4.2 0.9 0.7 2 1.3 2.9 2.1zm-7.9 9.5c0.1 1.4 1.4 3.8 1.4 5 0.3 1.5 1.5 5.1 2 6.9-4.6 2.6-13.3-0.6-19.1-8-1.3-1.7-2.5-3.6-3.4-5.7 3.7 3.9 11.9 3.1 19.1 1.8zm10-2.5c-0.4 0.9-0.9 1.7-1.6 2.4-0.7 0.7-2.3 1.8-2.7 2.9-0.6 1.7 1 3.5 0.4 5.5-0.5 1.6-1.4 2.8-2.7 3.6-0.5-1.8-1.7-5.4-2-6.9 0-1.2-1.3-3.6-1.4-5 3.5-0.6 6.8-1.1 10-2.5z"/>
				<path id="&lt;Mesh&gt;" class="s45" d="m168.1 38.9c-0.4 1.3-1.6 5-2.2 6.3-1 2.1-3.6 7.6-5.1 9-5.9-4.3-12.2-9.7-11.9-15.1 1-2.5 2.5-4.9 4.4-7.2 0 0 9-0.1 14.8 7zm5 14.4c0 1 0 2-0.3 3-0.5 1.9-1.8 2.9-3.3 3.4-3.2-1.4-5.9-3.4-8.7-5.5 1.5-1.4 4.1-6.9 5.1-9 0.6-1.3 1.8-5 2.2-6.3 2.1 2.6 3.8 6.1 4.5 10.9 0.2 1.1 0.4 2.3 0.5 3.5zm-12.3 0.9c-1 1-1.8 3.6-2.6 4.5-1 1.2-2.7 4.5-3.6 6.1-5.1-1.5-8.8-10-7.5-19.2 0.3-2.2 0.9-4.4 1.8-6.5-0.3 5.4 6 10.8 11.9 15.1zm8.7 5.5c-0.9 0.3-1.8 0.5-2.8 0.5-1-0.1-3-0.4-4 0.1-1.6 0.7-1.9 3.1-3.6 4-1.6 0.8-3.1 1-4.5 0.5 0.9-1.6 2.6-4.9 3.6-6.1 0.8-0.9 1.6-3.5 2.6-4.5 2.8 2.1 5.5 4.1 8.7 5.5z"/>
				<path id="&lt;Mesh&gt;" class="s46" d="m158.4 47.4c-1.1 0.6-4.6 2.3-6 2.8-2.3 0.7-8 2.6-10.1 2.5-0.9-7.2-1.3-15.5 2.8-19 2.5-1 5.2-1.6 8.2-1.8 0 0 6.3 6.4 5.1 15.5zm-6.9 13.6c-0.7 0.7-1.5 1.4-2.4 1.9-1.6 0.9-3.3 0.7-4.7-0.1-1.2-3.3-1.6-6.6-2.1-10.1 2.1 0.1 7.8-1.8 10.1-2.5 1.4-0.5 4.9-2.2 6-2.8-0.4 3.3-1.7 7-4.7 10.8-0.7 0.9-1.4 1.9-2.2 2.8zm-9.2-8.3c-1.3 0-3.8 1.2-5 1.2-1.5 0.2-5.2 1.2-6.9 1.7-2.5-4.7 1.2-13.3 8.8-18.7 1.7-1.3 3.7-2.4 5.9-3.2-4.1 3.5-3.7 11.8-2.8 19zm2.1 10.1c-0.8-0.4-1.6-1-2.3-1.7-0.7-0.8-1.8-2.4-2.8-2.8-1.7-0.7-3.6 0.8-5.5 0.1-1.6-0.5-2.8-1.5-3.4-2.8 1.7-0.5 5.4-1.5 6.9-1.7 1.2 0 3.7-1.2 5-1.2 0.5 3.5 0.9 6.8 2.1 10.1z"/>
				<path id="&lt;Mesh&gt;" class="s47" d="m145.6 46.3c-1.2-0.4-4.9-1.8-6.1-2.5-2.1-1.1-7.4-3.9-8.8-5.5 4.6-5.6 10.3-11.7 15.6-11.2 2.5 1.2 4.9 2.7 7 4.8 0 0-0.3 8.9-7.7 14.4zm-14.6 4.4c-1 0-2-0.1-3-0.4-1.8-0.6-2.8-1.9-3.2-3.5 1.5-3.2 3.7-5.8 5.9-8.5 1.4 1.6 6.7 4.4 8.8 5.5 1.2 0.7 4.9 2.1 6.1 2.5-2.6 2-6.2 3.5-11 4-1.2 0.2-2.4 0.3-3.6 0.4zm-0.3-12.4c-0.9-1-3.5-1.9-4.3-2.8-1.2-1-4.5-2.9-6-3.9 1.7-5 10.4-8.2 19.6-6.5 2.1 0.4 4.2 1.1 6.3 2-5.3-0.5-11 5.6-15.6 11.2zm-5.9 8.5c-0.3-0.9-0.4-1.9-0.3-2.8 0-1.1 0.5-3 0.1-4-0.7-1.7-3.1-2-3.9-3.9-0.8-1.5-0.8-3.1-0.3-4.5 1.5 1 4.8 2.9 6 3.9 0.8 0.9 3.4 1.8 4.3 2.8-2.2 2.7-4.4 5.3-5.9 8.5z"/>
				<path id="&lt;Mesh&gt;" class="s48" d="m137.6 36.3c-0.5-1.2-2.1-4.8-2.5-6.2-0.6-2.3-2.3-8-2.1-10.1 7.3-0.6 15.6-0.7 18.9 3.5 0.9 2.6 1.4 5.4 1.4 8.4 0 0-6.7 5.9-15.7 4.4zm-13.2-7.6c-0.7-0.7-1.4-1.5-1.8-2.4-0.8-1.7-0.6-3.3 0.2-4.8 3.4-1 6.7-1.3 10.2-1.5-0.2 2.1 1.5 7.8 2.1 10.1 0.4 1.4 2 5 2.5 6.2-3.3-0.5-6.9-2.1-10.6-5.2-0.8-0.8-1.8-1.5-2.6-2.4zm8.6-8.7c0.1-1.4-1-3.9-0.9-5.1-0.1-1.6-1-5.2-1.4-7 4.8-2.2 13.2 1.8 18.3 9.6 1.2 1.8 2.2 3.9 2.9 6-3.3-4.2-11.6-4.1-18.9-3.5zm-10.2 1.5c0.5-0.8 1.2-1.5 1.9-2.1 0.8-0.7 2.4-1.7 2.9-2.7 0.8-1.7-0.6-3.6 0.1-5.5 0.6-1.6 1.7-2.7 3-3.3 0.4 1.8 1.3 5.4 1.4 7-0.1 1.2 1 3.7 0.9 5.1-3.5 0.2-6.8 0.5-10.2 1.5z"/>
				<path id="&lt;Mesh&gt;" class="s49" d="m139.3 23.6c0.5-1.2 2-4.9 2.7-6.1 1.2-2 4.3-7.2 5.9-8.5 5.5 4.8 11.2 10.8 10.5 16.1-1.3 2.4-2.9 4.7-5.1 6.8 0 0-8.9-0.8-14-8.3zm-3.7-14.8c0-1 0.2-2 0.5-3 0.7-1.8 2.1-2.7 3.6-3.1 3.1 1.7 5.6 3.9 8.2 6.3-1.6 1.3-4.7 6.5-5.9 8.5-0.7 1.2-2.2 4.9-2.7 6.1-1.9-2.8-3.3-6.4-3.5-11.3-0.1-1.1-0.2-2.3-0.2-3.5zm12.3 0.2c1.1-0.9 2.1-3.4 3.1-4.2 1-1.2 3.1-4.3 4.1-5.8 4.9 1.9 7.8 10.8 5.6 19.9-0.5 2.1-1.2 4.2-2.3 6.2 0.7-5.3-5-11.3-10.5-16.1zm-8.2-6.3c1-0.2 1.9-0.3 2.9-0.2 1 0.1 2.9 0.7 4 0.3 1.7-0.6 2.1-2.9 4-3.7 1.6-0.7 3.1-0.7 4.5-0.1-1 1.5-3.1 4.6-4.1 5.8-1 0.8-2 3.3-3.1 4.2-2.6-2.4-5.1-4.6-8.2-6.3z"/>
				<g id="&lt;Group&gt;">
					<path id="&lt;Path&gt;" class="s4" d="m137.2 87.4q2-0.5 2.6-1.7"/>
					<path id="&lt;Path&gt;" class="s50" d="m147 84.7q-4 1.9-7.2 1-0.4-5.6 5.6-8.2 4.5-2.1 5-5 2.1 4.3 0.7 8c-0.6 2-2.3 3.4-4.1 4.2z"/>
				</g>
				<g id="&lt;Group&gt;">
					<path id="&lt;Path&gt;" class="s4" d="m136.8 78.6q-2-0.5-2.6-1.7"/>
					<path id="&lt;Path&gt;" class="s51" d="m122.9 71.7q-1.4-3.7 0.6-8 0.6 2.9 5.1 5 6 2.6 5.6 8.2-3.2 0.9-7.2-1c-1.8-0.8-3.5-2.2-4.1-4.2z"/>
				</g>
			</g>
			<path id="&lt;Path&gt;" class="s52" d="m67.2 153.1c-11-9.4-14.7-21.7-14.7-34 0-25.9 16.4-51.7 16.4-51.8 0.3-0.5 0.9-0.6 1.4-0.3 0.4 0.3 0.6 0.9 0.3 1.3 0 0-1 1.6-2.5 4.4-1.5 2.8-3.6 6.8-5.6 11.6-4 9.5-8 22.3-8 34.8 0 11.9 3.5 23.6 14 32.6 0.4 0.3 0.4 0.9 0.1 1.3-0.2 0.3-0.5 0.4-0.8 0.4q-0.3 0-0.6-0.3z"/>
			<path id="&lt;Mesh&gt;" class="s53" d="m63.2 52.8c1.2-0.6 4.5-2.7 5.8-3.3 2.2-0.9 7.7-3.3 9.8-3.4 1.6 7.1 2.8 15.3-1 19.2-2.4 1.2-5.1 2.1-8 2.5 0 0-6.8-5.8-6.6-15zm5.8-14.1c0.6-0.8 1.3-1.5 2.1-2.1 1.6-1.1 3.3-1 4.8-0.4 1.5 3.2 2.2 6.5 2.9 9.9-2.1 0.1-7.6 2.5-9.8 3.4-1.3 0.6-4.6 2.7-5.8 3.3 0.1-3.3 1.2-7.1 3.8-11.1 0.6-1 1.2-2.1 2-3zm9.8 7.4c1.4-0.1 3.7-1.6 4.9-1.6 1.5-0.4 5.1-1.7 6.8-2.3 2.8 4.4 0 13.3-7.1 19.4-1.6 1.4-3.5 2.7-5.6 3.7 3.8-3.9 2.6-12.1 1-19.2zm-2.9-9.9c0.8 0.4 1.6 0.9 2.4 1.5 0.7 0.7 2 2.3 3 2.6 1.8 0.5 3.5-1.2 5.5-0.7 1.6 0.4 2.9 1.3 3.7 2.6-1.7 0.6-5.3 1.9-6.8 2.3-1.2 0-3.5 1.5-4.9 1.6-0.7-3.4-1.4-6.7-2.9-9.9z"/>
			<path id="&lt;Mesh&gt;" class="s54" d="m76.1 52.8c1.3 0.3 5.1 1.3 6.3 1.9 2.3 0.9 7.8 3.2 9.3 4.6-4 6.1-9.1 12.6-14.5 12.6-2.6-0.9-5.1-2.2-7.4-4.1 0 0-0.5-8.9 6.3-15zm14.2-5.7c1-0.1 2-0.1 3 0.1 1.8 0.5 2.9 1.7 3.5 3.2-1.2 3.3-3.1 6-5.1 8.9-1.5-1.4-7-3.7-9.3-4.6-1.2-0.6-5-1.6-6.3-1.9 2.5-2.3 5.9-4.1 10.7-5.1 1.1-0.2 2.3-0.5 3.5-0.6zm1.4 12.2c1 1 3.7 1.7 4.6 2.5 1.3 0.8 4.7 2.5 6.3 3.3-1.3 5.1-9.6 9.2-18.9 8.3-2.2-0.2-4.4-0.7-6.5-1.5 5.4 0 10.5-6.5 14.5-12.6zm5.1-8.9c0.4 0.9 0.5 1.8 0.6 2.8 0 1-0.2 3 0.3 4 0.8 1.6 3.2 1.7 4.2 3.4 0.9 1.5 1.1 3 0.7 4.5-1.6-0.8-5-2.5-6.3-3.3-0.9-0.8-3.6-1.5-4.6-2.5 2-2.9 3.9-5.6 5.1-8.9z"/>
			<path id="&lt;Mesh&gt;" class="s55" d="m85 62c0.7 1.1 2.5 4.6 3 5.9 0.9 2.2 3 7.9 3.1 10-7.2 1.2-15.5 2-19.2-1.9-1.1-2.5-1.8-5.2-2.1-8.2 0 0 6.1-6.5 15.2-5.8zm13.9 6.3c0.8 0.7 1.4 1.4 2 2.3 1 1.6 0.8 3.3 0.2 4.8-3.3 1.3-6.6 1.9-10 2.5-0.1-2.1-2.2-7.8-3.1-10-0.5-1.3-2.3-4.8-3-5.9 3.4 0.2 7.1 1.4 11 4.2 1 0.7 2 1.4 2.9 2.1zm-7.8 9.6c0 1.3 1.3 3.7 1.4 4.9 0.2 1.5 1.4 5.1 1.9 6.9-4.5 2.6-13.3-0.6-19-8-1.4-1.7-2.6-3.6-3.5-5.7 3.7 3.9 12 3.1 19.2 1.9zm10-2.5c-0.4 0.8-1 1.6-1.7 2.3-0.7 0.7-2.3 1.9-2.6 2.9-0.6 1.7 0.9 3.5 0.4 5.5-0.5 1.7-1.5 2.8-2.8 3.6-0.5-1.8-1.7-5.4-1.9-6.9-0.1-1.2-1.4-3.6-1.4-4.9 3.4-0.6 6.7-1.2 10-2.5z"/>
			<path id="&lt;Mesh&gt;" class="s56" d="m84.5 74.8c-0.4 1.3-1.6 5-2.2 6.3-1 2.2-3.6 7.6-5.1 9.1-5.9-4.4-12.1-9.8-11.9-15.2 1.1-2.5 2.5-4.9 4.5-7.2 0 0 8.9 0 14.7 7zm5 14.5c0.1 0.9 0 1.9-0.3 3-0.5 1.8-1.7 2.8-3.3 3.4-3.2-1.5-5.9-3.5-8.7-5.5 1.5-1.5 4.1-6.9 5.1-9.1 0.6-1.3 1.8-5 2.2-6.3 2.1 2.6 3.8 6.1 4.5 10.9 0.2 1.2 0.4 2.3 0.5 3.6zm-12.3 0.9c-0.9 0.9-1.8 3.6-2.6 4.4-0.9 1.2-2.7 4.6-3.6 6.2-5.1-1.5-8.7-10.1-7.4-19.3 0.3-2.2 0.8-4.3 1.7-6.5-0.2 5.4 6 10.8 11.9 15.2zm8.7 5.5c-0.8 0.3-1.8 0.4-2.8 0.4-1 0-2.9-0.4-4 0.1-1.6 0.7-1.8 3.1-3.6 4-1.6 0.8-3.1 1-4.5 0.6 0.9-1.6 2.7-5 3.6-6.2 0.8-0.8 1.7-3.5 2.6-4.4 2.8 2 5.5 4 8.7 5.5z"/>
			<path id="&lt;Mesh&gt;" class="s57" d="m74.9 83.3c-1.2 0.6-4.7 2.3-6.1 2.8-2.2 0.7-7.9 2.6-10 2.6-0.9-7.3-1.4-15.6 2.7-19.1 2.5-1 5.3-1.6 8.3-1.8 0 0 6.2 6.4 5.1 15.5zm-7 13.6c-0.7 0.7-1.4 1.4-2.3 1.9-1.7 0.9-3.4 0.7-4.8-0.1-1.2-3.3-1.6-6.6-2-10 2.1 0 7.8-1.9 10-2.6 1.4-0.5 4.9-2.2 6.1-2.8-0.4 3.3-1.8 7-4.8 10.8-0.7 0.9-1.4 1.9-2.2 2.8zm-9.1-8.2c-1.4-0.1-3.9 1.1-5.1 1.1-1.5 0.2-5.1 1.2-6.9 1.7-2.4-4.7 1.2-13.3 8.8-18.7 1.8-1.3 3.7-2.4 5.9-3.2-4.1 3.5-3.6 11.8-2.7 19.1zm2 10c-0.8-0.4-1.6-1-2.2-1.7-0.7-0.7-1.8-2.4-2.9-2.8-1.6-0.7-3.5 0.8-5.4 0.2-1.7-0.6-2.8-1.6-3.5-2.9 1.8-0.5 5.4-1.5 6.9-1.7 1.2 0 3.7-1.2 5.1-1.1 0.4 3.4 0.8 6.7 2 10z"/>
			<path id="&lt;Mesh&gt;" class="s58" d="m62.1 82.2c-1.2-0.4-4.9-1.8-6.2-2.4-2.1-1.1-7.4-4-8.8-5.5 4.6-5.7 10.3-11.7 15.7-11.2 2.4 1.1 4.8 2.7 7 4.7 0 0-0.4 9-7.7 14.4zm-14.7 4.4c-0.9 0-1.9-0.1-2.9-0.4-1.8-0.6-2.8-1.9-3.3-3.5 1.6-3.1 3.7-5.7 5.9-8.4 1.4 1.5 6.7 4.4 8.8 5.5 1.3 0.6 5 2 6.2 2.4-2.7 2-6.3 3.6-11.1 4.1-1.2 0.1-2.3 0.3-3.6 0.3zm-0.3-12.3c-0.9-1-3.5-2-4.3-2.9-1.2-0.9-4.5-2.9-6-3.8 1.7-5 10.4-8.3 19.6-6.6 2.1 0.4 4.3 1.1 6.4 2.1-5.4-0.5-11.1 5.5-15.7 11.2zm-5.9 8.4c-0.2-0.9-0.3-1.9-0.3-2.8 0.1-1 0.5-3 0.1-4-0.7-1.7-3-2-3.9-3.8-0.7-1.6-0.8-3.1-0.3-4.5 1.5 0.9 4.8 2.9 6 3.8 0.8 0.9 3.4 1.9 4.3 2.9-2.2 2.7-4.3 5.3-5.9 8.4z"/>
			<path id="&lt;Mesh&gt;" class="s59" d="m54 72.2c-0.5-1.2-2.1-4.8-2.4-6.1-0.7-2.3-2.3-8.1-2.2-10.2 7.3-0.6 15.6-0.7 19 3.6 0.8 2.5 1.3 5.3 1.4 8.3 0 0-6.7 5.9-15.8 4.4zm-13.2-7.6c-0.7-0.7-1.3-1.4-1.8-2.4-0.8-1.7-0.6-3.3 0.3-4.7 3.3-1.1 6.7-1.3 10.1-1.6-0.1 2.1 1.5 7.9 2.2 10.2 0.3 1.3 1.9 4.9 2.4 6.1-3.3-0.5-6.9-2.1-10.5-5.2-0.9-0.8-1.9-1.5-2.7-2.4zm8.6-8.7c0.1-1.4-1-3.9-0.9-5.1-0.1-1.5-0.9-5.2-1.3-7 4.8-2.2 13.1 1.8 18.2 9.7 1.2 1.8 2.2 3.8 3 6-3.4-4.3-11.7-4.2-19-3.6zm-10.1 1.6c0.4-0.8 1.1-1.6 1.8-2.2 0.8-0.7 2.5-1.7 2.9-2.7 0.8-1.6-0.6-3.6 0.1-5.5 0.7-1.6 1.7-2.7 3.1-3.3 0.4 1.8 1.2 5.5 1.3 7-0.1 1.2 1 3.7 0.9 5.1-3.4 0.3-6.8 0.5-10.1 1.6z"/>
			<path id="&lt;Mesh&gt;" class="s60" d="m55.7 59.5c0.5-1.2 2-4.8 2.7-6 1.3-2.1 4.3-7.3 5.9-8.6 5.5 4.9 11.3 10.8 10.5 16.1-1.2 2.4-2.9 4.7-5 6.8 0 0-9-0.7-14.1-8.3zm-3.7-14.8c0.1-1 0.2-2 0.6-3 0.6-1.8 2-2.7 3.6-3.1 3.1 1.7 5.6 4 8.1 6.3-1.6 1.3-4.6 6.5-5.9 8.6-0.7 1.2-2.2 4.8-2.7 6-1.9-2.8-3.2-6.4-3.5-11.3-0.1-1.1-0.2-2.3-0.2-3.5zm12.3 0.2c1.1-0.9 2.2-3.4 3.1-4.2 1-1.1 3.1-4.3 4.1-5.8 4.9 1.9 7.8 10.8 5.7 19.9-0.5 2.1-1.3 4.2-2.4 6.2 0.8-5.3-5-11.2-10.5-16.1zm-8.1-6.3c0.9-0.2 1.9-0.2 2.8-0.1 1 0.1 2.9 0.6 4 0.2 1.7-0.6 2.1-2.9 4-3.7 1.6-0.7 3.1-0.6 4.5-0.1-1 1.5-3.1 4.7-4.1 5.8-0.9 0.8-2 3.3-3.1 4.2-2.5-2.3-5-4.6-8.1-6.3z"/>
			<g id="&lt;Group&gt;">
				<path id="&lt;Path&gt;" class="s4" d="m53.6 123.3q2-0.5 2.6-1.7"/>
				<path id="&lt;Path&gt;" class="s61" d="m63.4 120.6q-4 1.9-7.2 1-0.4-5.6 5.6-8.2 4.5-2.1 5.1-5 2 4.3 0.7 8.1c-0.7 1.9-2.4 3.3-4.2 4.1z"/>
			</g>
			<g id="&lt;Group&gt;">
				<path id="&lt;Path&gt;" class="s4" d="m59.3 142.6q2-0.6 2.6-1.8"/>
				<path id="&lt;Path&gt;" class="s62" d="m69.1 139.9q-4 1.8-7.2 0.9-0.4-5.6 5.6-8.1 4.5-2.2 5.1-5.1 2 4.3 0.7 8.1c-0.7 2-2.4 3.3-4.2 4.2z"/>
			</g>
			<g id="&lt;Group&gt;">
				<path id="&lt;Path&gt;" class="s4" d="m99.7 157.9q0.2 2.1 1.3 2.9"/>
				<path id="&lt;Path&gt;" class="s63" d="m100.6 168q-1.1-4.2 0.4-7.2 5.5 0.6 7 7 1.2 4.8 4 5.9-4.6 1.2-8.1-0.8c-1.8-1.1-2.8-3-3.3-4.9z"/>
			</g>
			<g id="&lt;Group&gt;">
				<path id="&lt;Path&gt;" class="s4" d="m196.7 116.8q0.2 2.1 1.2 2.9"/>
				<path id="&lt;Path&gt;" class="s64" d="m197.5 126.9q-1-4.2 0.4-7.2 5.6 0.6 7 7 1.3 4.8 4 5.9-4.5 1.2-8-0.8c-1.8-1.1-2.9-3-3.4-4.9z"/>
			</g>
			<g id="&lt;Group&gt;">
				<path id="&lt;Path&gt;" class="s4" d="m88 143.9q-0.9 1.8-0.5 3"/>
				<path id="&lt;Path&gt;" class="s65" d="m83.1 152.6q1.5-4.1 4.4-5.7 4.2 3.7 1.8 9.8-1.7 4.6-0.1 7.1-4.4-1.6-6.2-5.2c-0.9-1.9-0.6-4.1 0.1-6z"/>
			</g>
			<g id="&lt;Group&gt;">
				<path id="&lt;Path&gt;" class="s4" d="m182.9 105.6q-1 1.8-0.6 3.1"/>
				<path id="&lt;Path&gt;" class="s66" d="m177.9 114.4q1.5-4.1 4.4-5.7 4.2 3.7 1.8 9.7-1.7 4.7-0.1 7.2-4.4-1.6-6.1-5.3c-0.9-1.8-0.7-4 0-5.9z"/>
			</g>
			<g id="&lt;Group&gt;">
				<path id="&lt;Path&gt;" class="s4" d="m94 152.6q1.3-1.6 2.7-1.7"/>
				<path id="&lt;Path&gt;" class="s67" d="m105.9 142.6q4 0.4 7.1 3.9-2.9-0.6-6.6 2.7-4.8 4.4-9.7 1.7 0.4-3.3 3.7-6.1c1.5-1.4 3.5-2.3 5.5-2.2z"/>
			</g>
			<g id="&lt;Group&gt;">
				<path id="&lt;Path&gt;" class="s4" d="m187.7 111.1q1.3-1.6 2.7-1.6"/>
				<path id="&lt;Path&gt;" class="s68" d="m199.7 101.2q4 0.3 7.1 3.9-2.9-0.7-6.7 2.6-4.8 4.4-9.7 1.8 0.5-3.3 3.7-6.2c1.6-1.3 3.5-2.3 5.6-2.1z"/>
			</g>
			<g id="&lt;Group&gt;">
				<path id="&lt;Path&gt;" class="s4" d="m144.9 109.4q2-0.6 2.6-1.8"/>
				<path id="&lt;Path&gt;" class="s69" d="m154.7 106.7q-4 1.8-7.2 0.9-0.4-5.6 5.6-8.1 4.5-2.2 5.1-5.1 2 4.3 0.7 8.1c-0.7 2-2.4 3.4-4.2 4.2z"/>
			</g>
			<g id="&lt;Group&gt;">
				<path id="&lt;Path&gt;" class="s4" d="m53.2 114.6q-2-0.6-2.6-1.8"/>
				<path id="&lt;Path&gt;" class="s70" d="m39.3 107.7q-1.3-3.8 0.7-8.1 0.6 2.9 5.1 5 5.9 2.6 5.5 8.2-3.2 0.9-7.1-0.9c-1.9-0.9-3.5-2.3-4.2-4.2z"/>
			</g>
			<g id="&lt;Group&gt;">
				<path id="&lt;Path&gt;" class="s4" d="m56 135.7q-1.9-0.6-2.5-1.8"/>
				<path id="&lt;Path&gt;" class="s71" d="m42.1 128.8q-1.3-3.8 0.7-8.1 0.6 2.9 5.1 5.1 6 2.5 5.6 8.1-3.2 0.9-7.2-0.9c-1.8-0.8-3.5-2.2-4.2-4.2z"/>
			</g>
			<g id="&lt;Group&gt;">
				<path id="&lt;Path&gt;" class="s4" d="m140.3 102.3q-1.9-0.5-2.5-1.7"/>
				<path id="&lt;Path&gt;" class="s72" d="m126.4 95.4q-1.3-3.7 0.7-8 0.6 2.9 5.1 5 6 2.6 5.6 8.2-3.2 0.9-7.2-1c-1.8-0.8-3.5-2.2-4.2-4.2z"/>
			</g>
			<g id="&lt;Group&gt;">
				<path id="&lt;Path&gt;" class="s0" d="m209.2 52.4q6-3.8 10.6-2.7"/>
				<path id="&lt;Path&gt;" class="s73" d="m279.1 51.9q-20.9-21.8-59.3-2.2 4.9-10.5 18.9-16.8c6.4-2.8 13.9-4.1 20.7-1.4q13 5.2 19.7 20.4z"/>
				<path id="&lt;Path&gt;" class="s74" d="m279.1 51.9q-9-5.1-24.9 1.9-20.5 9.8-34.4-4.1 38.4-19.6 59.3 2.2z"/>
				<path id="&lt;Path&gt;" class="s75" d=""/>
			</g>
			<g id="&lt;Group&gt;">
				<path id="&lt;Path&gt;" class="s76" d="m160.8 32.4l-0.6-0.1 0.6 0.2c0.3 0.1 0.5 0.5 0.4 0.8-0.1 0.3-0.4 0.5-0.6 0.5q-0.1 0-0.3-0.1l-0.4-0.1 0.4 0.2c0.3 0.2 0.4 0.6 0.2 0.9-0.1 0.2-0.3 0.3-0.5 0.3q-0.2 0-0.4-0.1l-0.4-0.2 0.4 0.3c0.2 0.3 0.2 0.7 0 1q-0.2 0.2-0.5 0.2-0.2 0-0.4-0.2l-0.4-0.4 0.3 0.5c0.2 0.3 0.1 0.7-0.2 0.9q-0.2 0.1-0.4 0.1c-0.2 0-0.4-0.1-0.5-0.3l-0.3-0.5 0.2 0.5c0.1 0.4-0.1 0.7-0.4 0.9q-0.1 0-0.2 0c-0.3 0-0.5-0.2-0.6-0.4l-0.2-0.5 0.1 0.5c0 0.4-0.3 0.7-0.6 0.7q0 0-0.1 0c-0.3 0-0.6-0.2-0.6-0.5l-0.1-0.5-0.1 0.5c0 0.3-0.3 0.6-0.6 0.6q0 0-0.1 0c-0.3-0.1-0.6-0.4-0.5-0.7v-0.5l-0.2 0.4c-0.1 0.3-0.3 0.5-0.6 0.5q-0.1 0-0.2-0.1c-0.3-0.1-0.5-0.4-0.4-0.8l0.2-0.5-0.3 0.5c-0.1 0.2-0.3 0.3-0.6 0.3q-0.1 0-0.3-0.1c-0.3-0.2-0.4-0.6-0.2-0.9l0.2-0.4-0.3 0.3q-0.2 0.2-0.5 0.2-0.2 0-0.4-0.1c-0.3-0.3-0.3-0.7 0-1l0.3-0.3-0.4 0.2q-0.2 0.2-0.4 0.2c-0.2 0-0.4-0.2-0.5-0.3-0.2-0.3-0.1-0.7 0.2-0.9l0.4-0.3-0.5 0.2q-0.1 0-0.2 0c-0.3 0-0.5-0.2-0.6-0.4-0.1-0.4 0-0.7 0.4-0.9l0.4-0.1h-0.5q0 0 0 0c-0.4 0-0.7-0.2-0.7-0.5 0-0.4 0.2-0.7 0.6-0.8h0.5l-0.5-0.1c-0.4 0-0.7-0.3-0.6-0.7 0-0.4 0.3-0.6 0.7-0.6l0.5 0.1-0.5-0.2c-0.3-0.1-0.5-0.5-0.4-0.8 0.1-0.4 0.5-0.5 0.8-0.4l0.5 0.1-0.4-0.2c-0.3-0.2-0.4-0.6-0.2-0.9 0.1-0.3 0.5-0.4 0.8-0.2l0.5 0.2-0.4-0.3c-0.2-0.3-0.2-0.7 0-1 0.3-0.2 0.7-0.2 0.9 0l0.4 0.4-0.3-0.4c-0.2-0.3-0.1-0.7 0.2-0.9 0.3-0.2 0.7-0.2 0.9 0.1l0.3 0.5-0.2-0.5c-0.1-0.3 0.1-0.7 0.4-0.8 0.3-0.2 0.7 0 0.8 0.3l0.2 0.5-0.1-0.5c0-0.3 0.2-0.7 0.6-0.7 0.4-0.1 0.7 0.2 0.7 0.6l0.1 0.5v-0.5c0.1-0.4 0.4-0.7 0.8-0.6 0.3 0 0.6 0.3 0.5 0.7v0.5l0.2-0.5c0.1-0.3 0.4-0.5 0.8-0.4 0.3 0.1 0.5 0.5 0.4 0.8l-0.2 0.5 0.3-0.4c0.2-0.3 0.6-0.4 0.9-0.3 0.3 0.2 0.4 0.6 0.2 0.9l-0.3 0.5 0.4-0.4c0.2-0.2 0.7-0.2 0.9 0 0.3 0.3 0.3 0.7 0 0.9l-0.3 0.4 0.4-0.3c0.3-0.2 0.7-0.1 0.9 0.2 0.2 0.3 0.1 0.7-0.2 0.9 0.4-0.1 0.7 0 0.8 0.4 0.2 0.3 0 0.7-0.3 0.8l-0.8 0.3 0.8-0.1c0.4-0.1 0.7 0.2 0.7 0.5q0.1 0.3-0.1 0.5-0.1 0.2-0.4 0.3h-0.5l0.5 0.1c0.3 0 0.6 0.3 0.6 0.7 0 0.3-0.3 0.6-0.7 0.6q0 0 0 0z"/>
				<path id="&lt;Path&gt;" class="s77" d="m160 32.2h-0.4l0.4 0.1c0.3 0.1 0.5 0.4 0.4 0.7-0.1 0.3-0.3 0.4-0.6 0.4q-0.1 0-0.1 0l-0.5-0.1 0.4 0.2c0.3 0.2 0.4 0.5 0.2 0.8-0.1 0.2-0.3 0.3-0.5 0.3q-0.1 0-0.3-0.1l-0.4-0.2 0.4 0.3c0.2 0.2 0.2 0.6 0 0.8q-0.2 0.2-0.4 0.2-0.3 0-0.4-0.2l-0.4-0.3 0.3 0.4c0.2 0.2 0.1 0.6-0.2 0.8q-0.1 0-0.3 0c-0.2 0-0.4 0-0.5-0.2l-0.2-0.4 0.1 0.4c0.2 0.3 0 0.7-0.3 0.8q-0.1 0-0.2 0c-0.2 0-0.4-0.1-0.5-0.4l-0.2-0.4 0.1 0.5c0 0.3-0.2 0.6-0.5 0.6q-0.1 0-0.1 0c-0.3 0-0.5-0.2-0.6-0.5v-0.4l-0.1 0.4c0 0.3-0.2 0.5-0.5 0.5q-0.1 0-0.1 0c-0.3 0-0.5-0.3-0.5-0.6v-0.4l-0.1 0.4c-0.1 0.2-0.3 0.4-0.5 0.4q-0.1 0-0.2 0c-0.3-0.1-0.5-0.5-0.4-0.8l0.2-0.4-0.3 0.4c-0.1 0.2-0.3 0.3-0.5 0.3q-0.1 0-0.3-0.1c-0.2-0.2-0.3-0.5-0.2-0.8l0.3-0.4-0.3 0.3q-0.2 0.2-0.4 0.2-0.3 0-0.4-0.1c-0.3-0.3-0.3-0.6-0.1-0.9l0.4-0.3-0.4 0.3q-0.2 0.1-0.3 0.1c-0.2 0-0.4-0.1-0.5-0.3-0.2-0.3-0.1-0.6 0.1-0.8l0.4-0.2-0.4 0.1q-0.1 0.1-0.2 0.1c-0.2 0-0.4-0.2-0.5-0.4-0.1-0.3 0-0.6 0.3-0.8l0.4-0.1h-0.4q-0.1 0.1-0.1 0.1c-0.3 0-0.5-0.3-0.6-0.5 0-0.4 0.2-0.6 0.5-0.7h0.5l-0.5-0.1c-0.3 0-0.5-0.3-0.5-0.6 0-0.3 0.3-0.6 0.6-0.5h0.5l-0.4-0.1c-0.3-0.1-0.5-0.5-0.4-0.8 0.1-0.3 0.4-0.4 0.7-0.3l0.4 0.1-0.3-0.2c-0.3-0.2-0.4-0.5-0.2-0.8 0.1-0.3 0.5-0.3 0.8-0.2l0.3 0.3-0.3-0.4c-0.2-0.2-0.2-0.5 0-0.8 0.2-0.2 0.6-0.2 0.8 0l0.3 0.3-0.2-0.4c-0.2-0.2-0.1-0.6 0.2-0.7 0.2-0.2 0.6-0.1 0.8 0.1l0.2 0.4-0.2-0.4c-0.1-0.3 0.1-0.6 0.4-0.8 0.3-0.1 0.6 0.1 0.7 0.4l0.2 0.4-0.1-0.4c0-0.4 0.2-0.6 0.5-0.7 0.3 0 0.6 0.2 0.6 0.5l0.1 0.5v-0.5c0.1-0.3 0.4-0.5 0.7-0.5 0.3 0 0.5 0.3 0.5 0.6l-0.1 0.5 0.2-0.5c0.1-0.3 0.4-0.4 0.7-0.3 0.3 0.1 0.5 0.4 0.4 0.7l-0.2 0.4 0.3-0.3c0.1-0.3 0.5-0.4 0.8-0.2 0.2 0.1 0.3 0.5 0.1 0.7l-0.2 0.4 0.3-0.3c0.2-0.2 0.6-0.2 0.8 0 0.3 0.2 0.3 0.6 0 0.8l-0.3 0.3 0.4-0.2c0.3-0.2 0.6-0.1 0.8 0.2 0.2 0.2 0.1 0.5-0.1 0.7 0.2-0.1 0.5 0.1 0.7 0.4 0.1 0.2-0.1 0.6-0.4 0.7l-0.6 0.2h0.7c0.3-0.1 0.6 0.1 0.6 0.4q0 0.3-0.1 0.5-0.1 0.1-0.4 0.2h-0.4l0.4 0.1c0.3 0 0.6 0.3 0.5 0.6 0 0.3-0.2 0.5-0.5 0.5q0 0-0.1 0z"/>
				<path id="&lt;Path&gt;" class="s78" d="m159.1 32h-0.4l0.3 0.1c0.3 0.1 0.4 0.4 0.3 0.6 0 0.2-0.2 0.3-0.4 0.3q-0.1 0-0.2 0l-0.3-0.1 0.3 0.2c0.2 0.1 0.3 0.4 0.2 0.6-0.1 0.2-0.3 0.3-0.4 0.3q-0.2 0-0.3-0.1l-0.3-0.2 0.3 0.3c0.2 0.1 0.2 0.4 0 0.6q-0.2 0.2-0.3 0.2-0.2 0-0.4-0.2l-0.2-0.2 0.2 0.3c0.1 0.2 0 0.5-0.2 0.6q-0.1 0.1-0.2 0.1-0.3 0-0.4-0.2l-0.2-0.3 0.1 0.3c0.1 0.3 0 0.6-0.3 0.7q-0.1 0-0.1 0c-0.2 0-0.4-0.1-0.5-0.3l-0.1-0.4v0.4c0.1 0.3-0.1 0.5-0.4 0.5q0 0 0 0c-0.3 0-0.5-0.1-0.5-0.4v-0.3l-0.1 0.3c0 0.3-0.2 0.5-0.4 0.5q-0.1 0-0.1-0.1c-0.2 0-0.4-0.2-0.4-0.5v-0.3l-0.1 0.3c-0.1 0.2-0.2 0.3-0.4 0.3q-0.1 0-0.2 0c-0.2-0.1-0.4-0.3-0.3-0.6l0.1-0.3-0.2 0.3c0 0.1-0.2 0.2-0.4 0.2q-0.1 0-0.2 0c-0.2-0.2-0.3-0.5-0.2-0.7l0.2-0.3-0.2 0.3q-0.2 0.1-0.4 0.1-0.1 0-0.3-0.1c-0.2-0.2-0.2-0.5 0-0.7l0.3-0.3-0.4 0.2q-0.1 0.1-0.2 0.1-0.3 0-0.4-0.2c-0.2-0.2-0.1-0.5 0.1-0.6l0.3-0.3-0.3 0.2q-0.1 0-0.2 0c-0.2 0-0.3-0.1-0.4-0.3-0.1-0.2 0-0.5 0.3-0.6l0.3-0.1h-0.4q0 0 0 0c-0.3 0-0.5-0.2-0.5-0.4 0-0.2 0.2-0.5 0.4-0.5l0.4-0.1h-0.4c-0.2 0-0.4-0.3-0.4-0.5 0-0.3 0.3-0.5 0.5-0.4h0.4l-0.4-0.1c-0.2-0.1-0.4-0.4-0.3-0.6 0.1-0.3 0.4-0.4 0.6-0.3l0.4 0.1-0.3-0.2c-0.3-0.1-0.3-0.4-0.2-0.6 0.1-0.3 0.4-0.3 0.6-0.2l0.4 0.2-0.3-0.3c-0.2-0.1-0.2-0.4 0-0.6 0.2-0.2 0.5-0.2 0.6 0l0.3 0.2-0.2-0.3c-0.1-0.2-0.1-0.5 0.2-0.6 0.2-0.2 0.5-0.1 0.6 0.1l0.2 0.3-0.1-0.3c-0.1-0.3 0-0.5 0.3-0.6 0.2-0.1 0.5 0 0.6 0.2l0.1 0.4-0.1-0.4c0-0.2 0.2-0.5 0.4-0.5 0.3 0 0.5 0.1 0.6 0.4v0.4l0.1-0.4c0-0.3 0.2-0.4 0.5-0.4 0.2 0 0.4 0.2 0.4 0.5v0.4l0.1-0.4c0.1-0.2 0.3-0.4 0.6-0.3 0.2 0.1 0.3 0.4 0.3 0.6l-0.2 0.4 0.2-0.4c0.2-0.2 0.5-0.2 0.7-0.1 0.2 0.1 0.3 0.4 0.1 0.6l-0.2 0.4 0.3-0.3c0.2-0.2 0.5-0.2 0.7 0 0.2 0.2 0.2 0.5 0 0.6l-0.3 0.3 0.3-0.2c0.3-0.1 0.5-0.1 0.7 0.1 0.1 0.3 0.1 0.5-0.1 0.7 0.2-0.1 0.5 0 0.5 0.3 0.1 0.2 0 0.5-0.2 0.6l-0.5 0.2 0.5-0.1c0.3 0 0.5 0.1 0.5 0.4q0.1 0.2-0.1 0.3-0.1 0.2-0.3 0.2l-0.3 0.1h0.3c0.3 0 0.5 0.3 0.5 0.5-0.1 0.3-0.3 0.4-0.5 0.4q0 0 0 0z"/>
				<path id="&lt;Path&gt;" class="s79" d="m157.9 31.8h-0.3l0.3 0.1c0.2 0 0.3 0.2 0.2 0.4 0 0.2-0.2 0.3-0.3 0.3q-0.1 0-0.1-0.1l-0.3-0.1 0.2 0.2c0.2 0.1 0.3 0.3 0.2 0.5q-0.1 0.1-0.3 0.1-0.1 0-0.2 0l-0.3-0.2 0.2 0.2c0.2 0.2 0.2 0.4 0.1 0.5q-0.2 0.1-0.3 0.1-0.1 0-0.2-0.1l-0.2-0.2 0.1 0.3c0.1 0.1 0.1 0.4-0.1 0.5q-0.1 0-0.2 0-0.2 0-0.3-0.1l-0.1-0.3 0.1 0.3c0 0.2 0 0.4-0.2 0.4q-0.1 0.1-0.1 0.1c-0.2 0-0.3-0.1-0.4-0.3l-0.1-0.2 0.1 0.3c0 0.1-0.1 0.3-0.3 0.3q-0.1 0-0.1 0c-0.1 0-0.3-0.1-0.3-0.3l-0.1-0.2v0.2c0 0.2-0.2 0.4-0.3 0.4q0 0-0.1 0c-0.2-0.1-0.3-0.2-0.3-0.4v-0.3 0.3c-0.1 0.1-0.2 0.2-0.4 0.2q0 0-0.1 0c-0.2-0.1-0.3-0.3-0.2-0.5l0.1-0.2-0.2 0.2q-0.1 0.2-0.3 0.2 0 0-0.1-0.1c-0.2-0.1-0.3-0.3-0.2-0.4l0.2-0.3-0.2 0.2q-0.1 0.1-0.3 0.1-0.1 0-0.2-0.1c-0.1-0.1-0.1-0.3 0-0.5l0.2-0.2-0.2 0.2q-0.1 0.1-0.2 0.1-0.2 0-0.3-0.2c-0.1-0.2-0.1-0.4 0.1-0.5l0.2-0.1-0.3 0.1q0 0-0.1 0c-0.1 0-0.2-0.1-0.3-0.2-0.1-0.2 0-0.4 0.2-0.5l0.3-0.1h-0.3q0 0-0.1 0c-0.1 0-0.3-0.1-0.3-0.3 0-0.1 0.1-0.3 0.3-0.3l0.3-0.1h-0.3c-0.2 0-0.3-0.2-0.3-0.4 0-0.2 0.2-0.3 0.4-0.3h0.2l-0.2-0.1c-0.2 0-0.3-0.2-0.2-0.4 0-0.2 0.2-0.3 0.4-0.2l0.3 0.1-0.3-0.2c-0.1-0.1-0.2-0.3-0.1-0.5 0.1-0.1 0.3-0.2 0.5-0.1l0.2 0.2-0.2-0.2c-0.1-0.2-0.1-0.4 0-0.5 0.2-0.2 0.4-0.2 0.5 0l0.2 0.2-0.1-0.3c-0.1-0.1-0.1-0.3 0.1-0.4 0.1-0.1 0.3-0.1 0.4 0.1l0.2 0.2-0.1-0.3c-0.1-0.2 0-0.4 0.2-0.4 0.2-0.1 0.4 0 0.4 0.2l0.1 0.2v-0.2c0-0.2 0.1-0.4 0.3-0.4 0.2 0 0.4 0.1 0.4 0.3v0.3l0.1-0.3c0-0.2 0.2-0.3 0.3-0.3 0.2 0 0.4 0.2 0.4 0.4l-0.1 0.2 0.1-0.2c0.1-0.2 0.3-0.3 0.5-0.3 0.1 0.1 0.2 0.3 0.2 0.5l-0.1 0.3 0.1-0.3c0.1-0.1 0.3-0.2 0.5-0.1 0.2 0.1 0.2 0.3 0.1 0.5l-0.1 0.2 0.2-0.2c0.1-0.1 0.3-0.1 0.5 0 0.1 0.1 0.1 0.4 0 0.5l-0.2 0.2 0.2-0.2c0.2-0.1 0.4 0 0.5 0.2 0.1 0.1 0.1 0.3-0.1 0.4 0.2 0 0.4 0 0.4 0.2 0.1 0.2 0 0.4-0.2 0.5l-0.4 0.1h0.5c0.2-0.1 0.3 0.1 0.4 0.3q0 0.1-0.1 0.2-0.1 0.1-0.2 0.2h-0.3 0.3c0.1 0 0.3 0.2 0.3 0.4 0 0.2-0.2 0.3-0.4 0.3q0 0 0 0z"/>
				<path id="&lt;Path&gt;" class="s80" d="m156.5 31.5h-0.2l0.2 0.1c0.1 0 0.2 0.1 0.1 0.2q0 0.2-0.2 0.2 0 0 0 0l-0.2-0.1 0.2 0.1c0 0 0.1 0.2 0 0.3q0 0.1-0.2 0.1 0 0-0.1-0.1h-0.1l0.1 0.1c0.1 0 0.1 0.2 0 0.3q0 0-0.1 0-0.1 0-0.2 0l-0.1-0.2 0.1 0.2c0.1 0.1 0.1 0.2 0 0.3q-0.1 0-0.2 0-0.1 0-0.1-0.1l-0.1-0.1v0.1c0.1 0.1 0 0.2-0.1 0.3q0 0 0 0-0.2 0-0.2-0.1l-0.1-0.2v0.2c0.1 0.1 0 0.2-0.1 0.2q-0.1 0-0.1 0c-0.1 0-0.1-0.1-0.2-0.2v-0.1 0.1c0 0.1-0.1 0.2-0.2 0.2q0 0 0 0c-0.1 0-0.2-0.1-0.2-0.2v-0.2 0.2q-0.1 0.1-0.2 0.1-0.1 0-0.1 0c-0.1 0-0.2-0.1-0.1-0.2v-0.2l-0.1 0.1q0 0.1-0.1 0.1-0.1 0-0.1 0c-0.1-0.1-0.2-0.2-0.1-0.3l0.1-0.1-0.1 0.1q-0.1 0.1-0.2 0.1 0 0-0.1-0.1c-0.1-0.1-0.1-0.2 0-0.3l0.1-0.1-0.1 0.1q-0.1 0-0.1 0-0.2 0-0.2-0.1c-0.1-0.1-0.1-0.2 0-0.2l0.2-0.1h-0.2q0 0 0 0-0.2 0-0.2-0.1c-0.1-0.1 0-0.2 0.1-0.2l0.1-0.1h-0.1q0 0 0 0c-0.1 0-0.2-0.1-0.2-0.2-0.1-0.1 0-0.2 0.1-0.2h0.2-0.2c-0.1 0-0.2-0.1-0.2-0.2 0.1-0.1 0.2-0.2 0.3-0.2h0.1l-0.1-0.1c-0.1 0-0.2-0.1-0.2-0.2 0.1-0.1 0.2-0.2 0.3-0.1h0.1l-0.1-0.1c-0.1 0-0.1-0.2-0.1-0.2 0.1-0.1 0.2-0.2 0.3-0.1l0.2 0.1-0.2-0.1c0-0.1 0-0.2 0-0.3 0.1-0.1 0.2-0.1 0.3 0l0.1 0.1v-0.2c-0.1 0-0.1-0.2 0-0.2 0.1-0.1 0.2-0.1 0.3 0l0.1 0.2-0.1-0.2c0-0.1 0-0.2 0.1-0.2 0.1-0.1 0.3 0 0.3 0.1l0.1 0.1-0.1-0.1c0-0.1 0.1-0.3 0.2-0.3 0.1 0 0.2 0.1 0.2 0.2l0.1 0.2v-0.2c0-0.1 0.1-0.2 0.2-0.2 0.1 0 0.2 0.1 0.2 0.2v0.2-0.1c0-0.1 0.2-0.2 0.3-0.2 0.1 0.1 0.1 0.2 0.1 0.3l-0.1 0.1 0.1-0.1c0.1-0.1 0.2-0.1 0.3-0.1 0.1 0.1 0.1 0.2 0.1 0.3l-0.1 0.1 0.1-0.1c0.1 0 0.2 0 0.3 0 0.1 0.1 0.1 0.2 0 0.3l-0.1 0.1 0.1-0.1c0.1 0 0.2 0 0.3 0.1 0 0.1 0 0.2-0.1 0.3 0.1-0.1 0.2 0 0.3 0.1 0 0.1 0 0.2-0.1 0.2l-0.3 0.1h0.3c0.1 0 0.2 0.1 0.2 0.2q0 0.1 0 0.1-0.1 0.1-0.2 0.1h-0.1 0.1c0.1 0 0.2 0.1 0.2 0.3 0 0.1-0.1 0.1-0.2 0.1q0 0 0 0z"/>
			</g>
			<g id="&lt;Group&gt;">
				<path id="&lt;Path&gt;" class="s81" d="m76.9 70.6l-0.5-0.1 0.5 0.2c0.3 0.1 0.5 0.5 0.4 0.8-0.1 0.3-0.3 0.4-0.6 0.4q-0.1 0-0.2 0l-0.5-0.1 0.5 0.2c0.3 0.2 0.4 0.6 0.2 0.9-0.1 0.2-0.4 0.3-0.6 0.3q-0.2 0-0.3-0.1l-0.5-0.2 0.4 0.3c0.3 0.3 0.3 0.7 0 0.9q-0.2 0.2-0.4 0.2-0.3 0-0.5-0.1l-0.4-0.4 0.3 0.4c0.2 0.3 0.1 0.7-0.2 0.9q-0.1 0.2-0.3 0.2c-0.2 0-0.4-0.2-0.6-0.3l-0.2-0.5 0.1 0.5c0.2 0.3 0 0.7-0.3 0.8q-0.2 0.1-0.3 0.1c-0.2 0-0.5-0.2-0.6-0.4l-0.2-0.5 0.1 0.5c0 0.3-0.2 0.7-0.6 0.7q0 0 0 0c-0.4 0-0.6-0.2-0.7-0.5l-0.1-0.5v0.5c0 0.3-0.3 0.6-0.6 0.6q-0.1 0-0.1 0c-0.4-0.1-0.6-0.4-0.6-0.8v-0.5l-0.1 0.5c-0.1 0.3-0.4 0.5-0.6 0.5q-0.1 0-0.2-0.1c-0.4-0.1-0.6-0.4-0.4-0.8l0.1-0.5-0.3 0.5c-0.1 0.2-0.3 0.3-0.5 0.3q-0.2 0-0.3-0.1c-0.4-0.2-0.5-0.6-0.3-0.9l0.3-0.4-0.4 0.3q-0.2 0.2-0.4 0.2-0.3 0-0.5-0.2c-0.2-0.2-0.2-0.6 0-0.9l0.4-0.3-0.5 0.2q-0.1 0.1-0.3 0.1c-0.2 0-0.4-0.1-0.6-0.3-0.2-0.3-0.1-0.7 0.2-0.9l0.5-0.2-0.5 0.1q-0.1 0.1-0.3 0.1c-0.2 0-0.5-0.2-0.6-0.4-0.1-0.4 0.1-0.8 0.4-0.9l0.5-0.2-0.5 0.1q-0.1 0-0.1 0c-0.3 0-0.6-0.2-0.6-0.5-0.1-0.4 0.2-0.7 0.5-0.8h0.5l-0.5-0.1c-0.3 0-0.6-0.3-0.6-0.7 0.1-0.4 0.4-0.6 0.7-0.6l0.6 0.1-0.5-0.2c-0.4-0.1-0.6-0.5-0.4-0.8 0.1-0.4 0.4-0.6 0.8-0.4l0.5 0.1-0.5-0.2c-0.3-0.2-0.4-0.6-0.2-0.9 0.2-0.3 0.6-0.4 0.9-0.3l0.4 0.3-0.3-0.3c-0.3-0.3-0.3-0.7 0-1 0.2-0.2 0.6-0.2 0.9 0l0.3 0.4-0.2-0.5c-0.2-0.3-0.2-0.7 0.2-0.9 0.3-0.2 0.7-0.1 0.9 0.2l0.2 0.5-0.1-0.5c-0.2-0.4 0-0.7 0.3-0.9 0.4-0.1 0.8 0.1 0.9 0.4l0.2 0.5-0.1-0.5c-0.1-0.3 0.2-0.7 0.6-0.7 0.3-0.1 0.6 0.2 0.7 0.5v0.5l0.1-0.5c0-0.3 0.3-0.6 0.7-0.5 0.4 0 0.6 0.3 0.6 0.7l-0.1 0.5 0.2-0.5c0.1-0.3 0.5-0.5 0.8-0.4 0.4 0.1 0.5 0.5 0.4 0.8l-0.1 0.5 0.2-0.4c0.2-0.4 0.6-0.4 0.9-0.3 0.3 0.2 0.4 0.6 0.3 0.9l-0.3 0.5 0.3-0.4c0.3-0.3 0.7-0.3 1 0 0.2 0.2 0.2 0.7 0 0.9l-0.4 0.4 0.4-0.3c0.4-0.2 0.8-0.1 0.9 0.2 0.2 0.3 0.2 0.7-0.1 0.9 0.3-0.1 0.7 0 0.8 0.3 0.1 0.4 0 0.8-0.4 0.9l-0.7 0.3 0.8-0.1c0.3-0.1 0.6 0.2 0.7 0.5q0 0.3-0.1 0.5-0.2 0.2-0.5 0.2l-0.5 0.1 0.5 0.1c0.4 0 0.7 0.3 0.6 0.7 0 0.3-0.3 0.6-0.6 0.6q0 0-0.1 0z"/>
				<path id="&lt;Path&gt;" class="s82" d="m76.2 70.4h-0.5l0.5 0.1c0.3 0.1 0.4 0.4 0.3 0.7-0.1 0.3-0.3 0.4-0.5 0.4q-0.1 0-0.2 0l-0.4-0.1 0.4 0.2c0.2 0.2 0.3 0.5 0.2 0.8-0.2 0.2-0.3 0.3-0.5 0.3q-0.2 0-0.3-0.1l-0.4-0.3 0.3 0.4c0.2 0.2 0.2 0.5 0 0.8q-0.2 0.1-0.4 0.1-0.2 0-0.4-0.1l-0.3-0.3 0.2 0.4c0.2 0.2 0.1 0.6-0.1 0.7q-0.2 0.1-0.3 0.1c-0.2 0-0.4-0.1-0.5-0.2l-0.3-0.4 0.2 0.4c0.1 0.3 0 0.7-0.3 0.8q-0.1 0-0.2 0c-0.3 0-0.5-0.1-0.6-0.4l-0.1-0.4v0.5c0.1 0.3-0.2 0.6-0.5 0.6q0 0 0 0c-0.3 0-0.6-0.2-0.6-0.5l-0.1-0.4v0.4c0 0.3-0.3 0.5-0.6 0.5q0 0 0 0c-0.3 0-0.6-0.3-0.6-0.6l0.1-0.4-0.1 0.4c-0.1 0.2-0.4 0.4-0.6 0.4q-0.1 0-0.2-0.1c-0.3-0.1-0.4-0.4-0.3-0.7l0.1-0.4-0.2 0.4c-0.1 0.2-0.3 0.3-0.5 0.3q-0.2 0-0.3-0.1c-0.3-0.2-0.4-0.5-0.2-0.8l0.2-0.4-0.3 0.3q-0.2 0.2-0.4 0.2-0.2 0-0.4-0.2c-0.2-0.2-0.2-0.5 0-0.8l0.3-0.3-0.4 0.3q-0.1 0-0.3 0c-0.2 0-0.4 0-0.5-0.2-0.1-0.3-0.1-0.6 0.2-0.8l0.4-0.3-0.5 0.2q-0.1 0-0.2 0c-0.2 0-0.4-0.1-0.5-0.3-0.1-0.3 0.1-0.7 0.4-0.8l0.4-0.1h-0.5q0 0 0 0c-0.3 0-0.6-0.2-0.6-0.5-0.1-0.3 0.2-0.6 0.5-0.6l0.4-0.1h-0.4c-0.3 0-0.6-0.3-0.5-0.6 0-0.3 0.3-0.6 0.6-0.5h0.4l-0.4-0.1c-0.3-0.1-0.5-0.5-0.4-0.8 0.1-0.3 0.5-0.4 0.8-0.3l0.4 0.1-0.4-0.2c-0.3-0.2-0.3-0.5-0.2-0.8 0.2-0.3 0.5-0.4 0.8-0.2l0.4 0.2-0.3-0.3c-0.3-0.2-0.3-0.6 0-0.8 0.2-0.2 0.5-0.2 0.8 0l0.3 0.3-0.3-0.4c-0.1-0.2-0.1-0.6 0.2-0.8 0.3-0.1 0.6-0.1 0.8 0.2l0.2 0.4-0.1-0.4c-0.1-0.3 0-0.7 0.3-0.8 0.3-0.1 0.7 0.1 0.8 0.4l0.1 0.4v-0.5c-0.1-0.3 0.1-0.6 0.5-0.6 0.3 0 0.6 0.2 0.6 0.5l0.1 0.4v-0.4c0-0.3 0.3-0.5 0.6-0.5 0.3 0 0.6 0.3 0.5 0.6v0.5l0.1-0.5c0.1-0.3 0.5-0.4 0.8-0.3 0.3 0.1 0.4 0.4 0.3 0.7l-0.1 0.4 0.2-0.4c0.2-0.2 0.5-0.3 0.8-0.1 0.3 0.1 0.4 0.5 0.2 0.7l-0.2 0.4 0.3-0.3c0.2-0.2 0.6-0.2 0.8 0 0.2 0.2 0.2 0.6 0 0.8l-0.3 0.3 0.4-0.2c0.2-0.2 0.6-0.1 0.7 0.1 0.2 0.3 0.1 0.6-0.1 0.8 0.3-0.1 0.6 0.1 0.7 0.3 0.1 0.3 0 0.7-0.3 0.8l-0.7 0.2 0.7-0.1c0.3 0 0.6 0.2 0.7 0.5q0 0.3-0.1 0.5-0.2 0.1-0.4 0.2h-0.5l0.5 0.1c0.3 0 0.5 0.3 0.5 0.6 0 0.3-0.3 0.5-0.6 0.5q0 0 0 0z"/>
				<path id="&lt;Path&gt;" class="s83" d="m75.2 70.2h-0.4l0.4 0.1c0.2 0.1 0.4 0.4 0.3 0.6-0.1 0.2-0.3 0.3-0.5 0.3q0 0-0.1 0l-0.4-0.1 0.4 0.2c0.2 0.1 0.3 0.4 0.1 0.6-0.1 0.2-0.2 0.3-0.4 0.3q-0.1 0-0.2-0.1l-0.3-0.2 0.2 0.3c0.2 0.1 0.2 0.4 0 0.6q-0.1 0.2-0.3 0.2-0.2 0-0.3-0.2l-0.3-0.2 0.2 0.3c0.2 0.2 0.1 0.5-0.1 0.6q-0.1 0.1-0.3 0.1-0.2 0-0.4-0.2l-0.2-0.3 0.2 0.3c0 0.3-0.1 0.6-0.3 0.6q-0.1 0.1-0.2 0.1c-0.2 0-0.4-0.1-0.4-0.3l-0.2-0.4 0.1 0.4c0 0.2-0.2 0.5-0.4 0.5q0 0-0.1 0c-0.2 0-0.4-0.2-0.4-0.4l-0.1-0.4v0.4c0 0.3-0.2 0.4-0.5 0.4q0 0 0 0c-0.3 0-0.5-0.2-0.5-0.5l0.1-0.3-0.1 0.3c-0.1 0.2-0.3 0.3-0.5 0.3q-0.1 0-0.1 0c-0.3-0.1-0.4-0.3-0.3-0.6l0.1-0.3-0.2 0.3c-0.1 0.1-0.3 0.2-0.4 0.2q-0.1 0-0.3-0.1c-0.2-0.1-0.2-0.4-0.1-0.6l0.2-0.3-0.3 0.2q-0.1 0.2-0.3 0.2-0.2 0-0.3-0.1c-0.2-0.2-0.2-0.5-0.1-0.7l0.3-0.3-0.3 0.2q-0.1 0.1-0.3 0.1-0.2 0-0.4-0.2c-0.1-0.2 0-0.5 0.2-0.7l0.3-0.2-0.4 0.2q0 0-0.1 0c-0.2 0-0.4-0.1-0.5-0.3-0.1-0.3 0.1-0.5 0.3-0.6l0.4-0.1h-0.4q0 0-0.1 0c-0.2 0-0.4-0.2-0.4-0.4-0.1-0.3 0.1-0.5 0.4-0.5l0.3-0.1h-0.3c-0.3 0-0.5-0.3-0.5-0.5 0.1-0.3 0.3-0.5 0.6-0.4h0.3l-0.3-0.1c-0.3-0.1-0.4-0.4-0.3-0.6 0.1-0.3 0.3-0.4 0.6-0.3l0.3 0.1-0.3-0.2c-0.2-0.1-0.3-0.4-0.2-0.6 0.2-0.3 0.5-0.3 0.7-0.2l0.3 0.2-0.3-0.3c-0.1-0.1-0.1-0.4 0-0.6 0.2-0.2 0.5-0.2 0.7 0l0.3 0.2-0.2-0.3c-0.2-0.2-0.1-0.5 0.1-0.6 0.2-0.2 0.5-0.1 0.7 0.1l0.2 0.3-0.2-0.3c-0.1-0.3 0.1-0.6 0.3-0.6 0.2-0.1 0.5 0 0.6 0.2l0.1 0.4v-0.4c0-0.2 0.1-0.5 0.4-0.5 0.3 0 0.5 0.1 0.5 0.4l0.1 0.4v-0.4c0-0.3 0.3-0.5 0.5-0.4 0.3 0 0.5 0.2 0.4 0.5v0.4l0.1-0.4c0.1-0.2 0.4-0.4 0.6-0.3 0.3 0.1 0.4 0.4 0.3 0.6l-0.1 0.4 0.2-0.4c0.1-0.2 0.4-0.3 0.6-0.1 0.3 0.1 0.3 0.4 0.2 0.6l-0.2 0.3 0.3-0.2c0.1-0.2 0.4-0.2 0.6 0 0.2 0.2 0.2 0.4 0 0.6l-0.2 0.3 0.3-0.2c0.2-0.1 0.5-0.1 0.6 0.1 0.2 0.2 0.1 0.5-0.1 0.7 0.3-0.1 0.5 0 0.6 0.2 0.1 0.3 0 0.6-0.3 0.6l-0.5 0.3 0.6-0.1c0.2-0.1 0.5 0.1 0.5 0.4q0 0.2-0.1 0.3-0.1 0.2-0.3 0.2l-0.4 0.1h0.4c0.2 0 0.4 0.2 0.4 0.5 0 0.2-0.2 0.4-0.5 0.4q0 0 0 0z"/>
				<path id="&lt;Path&gt;" class="s84" d="m74 70h-0.2l0.2 0.1c0.2 0 0.3 0.2 0.3 0.4-0.1 0.1-0.2 0.2-0.4 0.2q0 0-0.1 0l-0.2-0.1 0.2 0.2c0.2 0.1 0.2 0.3 0.1 0.5q-0.1 0.1-0.3 0.1-0.1 0-0.2 0l-0.2-0.2 0.2 0.2c0.1 0.2 0.1 0.4 0 0.5q-0.1 0.1-0.2 0.1-0.2 0-0.3-0.1l-0.2-0.2 0.2 0.3c0.1 0.1 0 0.3-0.1 0.5q-0.1 0-0.2 0-0.2 0-0.3-0.1l-0.2-0.3 0.1 0.3c0.1 0.2 0 0.4-0.2 0.4q0 0.1-0.1 0.1c-0.1 0-0.3-0.1-0.3-0.3l-0.1-0.2v0.2c0 0.2-0.1 0.4-0.3 0.4q0 0 0 0c-0.2 0-0.3-0.1-0.4-0.3v-0.2 0.2c-0.1 0.2-0.2 0.3-0.4 0.3q0 0 0 0c-0.2 0-0.3-0.1-0.3-0.3v-0.3l-0.1 0.3c0 0.1-0.2 0.2-0.3 0.2q-0.1 0-0.1 0c-0.2-0.1-0.3-0.3-0.3-0.5l0.1-0.2-0.1 0.2q-0.1 0.2-0.3 0.2-0.1 0-0.2-0.1c-0.1-0.1-0.2-0.3-0.1-0.4l0.1-0.3-0.2 0.2q-0.1 0.1-0.2 0.1-0.1 0-0.2-0.1c-0.2-0.1-0.2-0.3-0.1-0.5l0.2-0.2-0.2 0.2q-0.1 0-0.2 0-0.2 0-0.3-0.1c-0.1-0.2 0-0.4 0.1-0.5l0.3-0.2-0.3 0.1q-0.1 0.1-0.1 0.1c-0.2 0-0.3-0.1-0.3-0.3-0.1-0.1 0-0.3 0.2-0.4l0.2-0.1h-0.3q0 0 0 0c-0.2 0-0.3-0.1-0.3-0.3-0.1-0.2 0.1-0.3 0.3-0.4h0.2-0.2c-0.2 0-0.4-0.2-0.4-0.4 0.1-0.2 0.2-0.3 0.4-0.3h0.3l-0.3-0.1c-0.2 0-0.3-0.2-0.2-0.4 0.1-0.2 0.3-0.3 0.4-0.2l0.3 0.1-0.2-0.2c-0.2-0.1-0.2-0.3-0.1-0.5 0.1-0.1 0.3-0.2 0.4-0.1l0.3 0.2-0.2-0.2c-0.2-0.2-0.2-0.4 0-0.5 0.1-0.2 0.3-0.2 0.5 0l0.2 0.2-0.2-0.3c-0.1-0.1-0.1-0.3 0.1-0.5 0.2-0.1 0.4 0 0.5 0.1l0.1 0.3-0.1-0.3c0-0.2 0.1-0.4 0.3-0.4 0.1-0.1 0.3 0 0.4 0.2l0.1 0.2v-0.2c-0.1-0.2 0.1-0.4 0.3-0.4 0.2 0 0.3 0.1 0.3 0.3l0.1 0.2v-0.2c0-0.2 0.2-0.4 0.4-0.3 0.2 0 0.3 0.2 0.3 0.3v0.3l0.1-0.2c0-0.2 0.2-0.3 0.4-0.3 0.2 0.1 0.3 0.3 0.2 0.5l-0.1 0.2 0.2-0.2c0.1-0.2 0.3-0.2 0.5-0.1 0.1 0.1 0.2 0.3 0.1 0.5l-0.2 0.2 0.2-0.2c0.2-0.1 0.4-0.1 0.5 0 0.2 0.1 0.2 0.4 0 0.5l-0.2 0.2 0.3-0.2c0.1-0.1 0.3 0 0.4 0.1 0.1 0.2 0.1 0.4 0 0.5 0.1 0 0.3 0 0.4 0.2 0.1 0.2 0 0.4-0.2 0.5l-0.4 0.1h0.4c0.2-0.1 0.4 0.1 0.4 0.3q0 0.1-0.1 0.2 0 0.1-0.2 0.1l-0.3 0.1h0.3c0.2 0 0.3 0.2 0.3 0.4 0 0.2-0.1 0.3-0.3 0.3q0 0-0.1 0z"/>
				<path id="&lt;Path&gt;" class="s85" d="m72.6 69.7h-0.1l0.1 0.1c0.1 0 0.2 0.1 0.2 0.2q-0.1 0.2-0.2 0.2-0.1 0-0.1-0.1h-0.1l0.1 0.1c0.1 0 0.1 0.2 0.1 0.3q-0.1 0.1-0.2 0.1-0.1 0-0.1-0.1l-0.1-0.1 0.1 0.2c0.1 0 0.1 0.2 0 0.2q-0.1 0.1-0.2 0.1 0 0-0.1-0.1l-0.1-0.1 0.1 0.2c0 0.1 0 0.2-0.1 0.2q0 0.1-0.1 0.1-0.1 0-0.2-0.1l-0.1-0.1 0.1 0.1c0 0.1 0 0.2-0.1 0.3q-0.1 0-0.1 0-0.1 0-0.2-0.2v-0.1 0.2c0 0.1-0.1 0.2-0.2 0.2q0 0 0 0c-0.1 0-0.2-0.1-0.2-0.2v-0.1 0.1c-0.1 0.1-0.1 0.2-0.3 0.2q0 0 0 0c-0.1 0-0.2-0.1-0.2-0.2l0.1-0.2-0.1 0.2q0 0.1-0.2 0.1 0 0 0 0c-0.1 0-0.2-0.2-0.2-0.3l0.1-0.1-0.1 0.1q-0.1 0.1-0.2 0.1 0 0-0.1 0c-0.1-0.1-0.1-0.2 0-0.3v-0.1l-0.1 0.1q0 0.1-0.1 0.1-0.1 0-0.2-0.1c0-0.1 0-0.2 0-0.3l0.1-0.1-0.1 0.1q0 0-0.1 0-0.1 0-0.2-0.1c0-0.1 0-0.2 0.1-0.2l0.1-0.1h-0.1q-0.1 0-0.1 0-0.1 0-0.2-0.1c0-0.1 0-0.2 0.1-0.3h0.2-0.2q0 0 0 0c-0.1 0-0.2-0.1-0.2-0.2 0-0.1 0.1-0.2 0.2-0.2h0.1-0.1c-0.1 0-0.2-0.1-0.2-0.2 0-0.2 0.1-0.2 0.2-0.2h0.2l-0.2-0.1c-0.1 0-0.1-0.1-0.1-0.2 0-0.1 0.1-0.2 0.2-0.1h0.2l-0.1-0.1c-0.1 0-0.2-0.2-0.1-0.3 0-0.1 0.2-0.1 0.3 0l0.1 0.1-0.1-0.2c-0.1 0-0.1-0.2 0-0.2 0.1-0.1 0.2-0.1 0.3 0l0.1 0.1-0.1-0.2c-0.1-0.1 0-0.2 0.1-0.2 0.1-0.1 0.2-0.1 0.2 0l0.1 0.1v-0.1c-0.1-0.1 0-0.2 0.1-0.3 0.1 0 0.2 0.1 0.2 0.2l0.1 0.1v-0.1c0-0.2 0-0.3 0.2-0.3 0.1 0 0.2 0.1 0.2 0.2v0.2-0.2c0-0.1 0.1-0.2 0.2-0.2 0.1 0 0.2 0.1 0.2 0.2v0.2l0.1-0.2c0-0.1 0.1-0.1 0.2-0.1 0.1 0.1 0.2 0.2 0.1 0.3v0.1l0.1-0.1c0-0.1 0.2-0.1 0.2-0.1 0.1 0.1 0.2 0.2 0.1 0.3l-0.1 0.1 0.1-0.1c0.1-0.1 0.2-0.1 0.3 0 0.1 0.1 0.1 0.2 0 0.3l-0.1 0.1 0.2-0.1c0 0 0.2 0 0.2 0.1 0.1 0.1 0.1 0.2 0 0.3 0.1-0.1 0.2 0 0.2 0.1 0.1 0.1 0 0.2-0.1 0.2l-0.2 0.1h0.2c0.1 0 0.2 0.1 0.3 0.2q0 0-0.1 0.1 0 0.1-0.1 0.1h-0.2 0.2c0.1 0 0.2 0.1 0.2 0.2 0 0.2-0.1 0.2-0.2 0.2q0 0-0.1 0z"/>
			</g>
			<g id="&lt;Group&gt;">
				<path id="&lt;Path&gt;" class="s86" d="m267.4 117h-0.5l0.5 0.2c0.4 0.1 0.5 0.4 0.4 0.8-0.1 0.2-0.3 0.4-0.6 0.4q-0.1 0-0.2 0l-0.5-0.2 0.5 0.3c0.3 0.2 0.4 0.6 0.2 0.9-0.1 0.2-0.3 0.3-0.6 0.3q-0.1 0-0.3-0.1l-0.4-0.3 0.3 0.4c0.3 0.3 0.3 0.7 0.1 0.9q-0.3 0.2-0.5 0.2-0.3 0-0.5-0.2l-0.3-0.3 0.2 0.4c0.2 0.3 0.2 0.7-0.1 0.9q-0.2 0.1-0.4 0.1c-0.2 0-0.4-0.1-0.5-0.3l-0.3-0.4 0.1 0.5c0.2 0.3 0 0.7-0.3 0.8q-0.1 0.1-0.3 0.1c-0.2 0-0.5-0.2-0.6-0.5l-0.1-0.4v0.5c0.1 0.3-0.2 0.7-0.5 0.7q-0.1 0-0.1 0c-0.3 0-0.6-0.2-0.7-0.6v-0.5l-0.1 0.5c0 0.4-0.3 0.6-0.6 0.6q-0.1 0-0.1 0c-0.4 0-0.6-0.3-0.6-0.7l0.1-0.5-0.2 0.5c-0.1 0.3-0.3 0.4-0.6 0.4q-0.1 0-0.2 0c-0.4-0.1-0.5-0.5-0.4-0.8l0.1-0.5-0.2 0.4c-0.2 0.2-0.4 0.4-0.6 0.4q-0.2 0-0.3-0.1c-0.3-0.2-0.4-0.6-0.3-0.9l0.3-0.5-0.3 0.4q-0.2 0.2-0.5 0.2-0.3 0-0.5-0.2c-0.2-0.2-0.2-0.6 0-0.9l0.4-0.4-0.5 0.3q-0.1 0.1-0.3 0.1c-0.2 0-0.4-0.1-0.6-0.3-0.2-0.3-0.1-0.7 0.2-0.9l0.5-0.3-0.5 0.2q-0.1 0.1-0.2 0.1c-0.3 0-0.6-0.2-0.7-0.5-0.1-0.3 0.1-0.7 0.4-0.8l0.5-0.2-0.5 0.1q0 0-0.1 0c-0.3 0-0.6-0.2-0.6-0.6-0.1-0.3 0.2-0.7 0.5-0.7l0.5-0.1h-0.5c-0.3-0.1-0.6-0.4-0.6-0.7 0.1-0.4 0.4-0.6 0.8-0.6h0.5l-0.5-0.1c-0.4-0.1-0.5-0.5-0.4-0.8 0.1-0.4 0.4-0.6 0.8-0.5l0.5 0.2-0.5-0.3c-0.3-0.2-0.4-0.6-0.2-0.9 0.2-0.3 0.6-0.4 0.9-0.2l0.5 0.3-0.4-0.4c-0.3-0.2-0.3-0.6 0-0.9 0.2-0.2 0.6-0.3 0.9 0l0.4 0.4-0.3-0.5c-0.2-0.3-0.1-0.7 0.2-0.9 0.3-0.2 0.7-0.1 0.9 0.2l0.2 0.4-0.1-0.4c-0.2-0.4 0-0.8 0.4-0.9 0.3-0.1 0.7 0.1 0.8 0.4l0.2 0.5-0.1-0.5c0-0.4 0.2-0.7 0.6-0.7 0.3-0.1 0.7 0.2 0.7 0.5l0.1 0.5v-0.5c0-0.3 0.4-0.6 0.7-0.6 0.4 0.1 0.6 0.4 0.6 0.7v0.6l0.1-0.5c0.1-0.4 0.5-0.6 0.8-0.4 0.4 0.1 0.6 0.4 0.5 0.8l-0.2 0.5 0.3-0.5c0.1-0.3 0.5-0.4 0.9-0.2 0.3 0.2 0.4 0.6 0.2 0.9l-0.3 0.5 0.4-0.4c0.2-0.3 0.6-0.3 0.9 0 0.2 0.2 0.2 0.6 0 0.9l-0.4 0.4 0.5-0.3c0.3-0.2 0.7-0.1 0.9 0.2 0.2 0.3 0.1 0.6-0.2 0.8 0.3-0.1 0.7 0.1 0.8 0.4 0.1 0.4 0 0.7-0.4 0.9l-0.7 0.2 0.8-0.1c0.3 0 0.7 0.2 0.7 0.6q0 0.3-0.1 0.5-0.2 0.2-0.4 0.2l-0.6 0.1h0.6c0.3 0.1 0.6 0.4 0.5 0.8 0 0.3-0.3 0.5-0.6 0.5q0 0-0.1 0z"/>
				<path id="&lt;Path&gt;" class="s87" d="m266.7 116.9h-0.5l0.5 0.1c0.3 0.1 0.4 0.4 0.3 0.7 0 0.3-0.3 0.4-0.5 0.4q-0.1 0-0.2 0l-0.4-0.2 0.4 0.3c0.2 0.1 0.3 0.5 0.2 0.8-0.1 0.1-0.3 0.2-0.5 0.2q-0.2 0-0.3 0l-0.4-0.3 0.3 0.3c0.3 0.3 0.3 0.6 0 0.8q-0.1 0.2-0.4 0.2-0.2 0-0.4-0.1l-0.3-0.4 0.3 0.4c0.1 0.3 0.1 0.6-0.2 0.8q-0.2 0.1-0.3 0.1c-0.2 0-0.4-0.1-0.5-0.2l-0.2-0.4 0.1 0.4c0.1 0.3 0 0.6-0.3 0.7q-0.1 0.1-0.2 0.1c-0.3 0-0.5-0.2-0.6-0.4l-0.1-0.4v0.4c0.1 0.3-0.1 0.6-0.4 0.7q-0.1 0-0.1 0c-0.3 0-0.6-0.2-0.6-0.5l-0.1-0.5v0.5c0 0.3-0.3 0.5-0.6 0.5q0 0 0 0c-0.3 0-0.6-0.3-0.5-0.6v-0.5l-0.1 0.5c-0.1 0.2-0.3 0.3-0.6 0.3q-0.1 0-0.2 0c-0.3-0.1-0.4-0.4-0.3-0.7l0.1-0.4-0.2 0.4c-0.1 0.1-0.3 0.2-0.5 0.2q-0.2 0-0.3 0c-0.3-0.2-0.4-0.6-0.2-0.8l0.2-0.4-0.3 0.3q-0.1 0.2-0.4 0.2-0.2 0-0.4-0.2c-0.2-0.2-0.2-0.6 0-0.8l0.3-0.3-0.4 0.2q-0.1 0.1-0.3 0.1c-0.2 0-0.3-0.1-0.5-0.2-0.1-0.3-0.1-0.7 0.2-0.8l0.4-0.3-0.4 0.2q-0.1 0-0.2 0c-0.3 0-0.5-0.1-0.6-0.4-0.1-0.3 0.1-0.6 0.4-0.7l0.4-0.1h-0.5q0 0 0 0c-0.3 0-0.6-0.2-0.6-0.5 0-0.3 0.2-0.6 0.5-0.6l0.4-0.1h-0.4c-0.3-0.1-0.6-0.3-0.5-0.6 0-0.4 0.3-0.6 0.6-0.6l0.5 0.1-0.5-0.2c-0.3-0.1-0.4-0.4-0.3-0.7 0.1-0.3 0.4-0.4 0.7-0.3l0.4 0.1-0.4-0.2c-0.2-0.2-0.3-0.6-0.2-0.8 0.2-0.3 0.6-0.4 0.8-0.2l0.4 0.2-0.3-0.3c-0.2-0.2-0.2-0.6 0-0.8 0.2-0.2 0.6-0.2 0.8 0l0.3 0.3-0.2-0.4c-0.2-0.3-0.1-0.6 0.1-0.8 0.3-0.1 0.6-0.1 0.8 0.2l0.3 0.4-0.2-0.5c-0.1-0.3 0.1-0.6 0.3-0.7 0.3-0.1 0.7 0.1 0.8 0.4l0.1 0.4v-0.5c-0.1-0.3 0.2-0.6 0.5-0.6 0.3-0.1 0.6 0.2 0.6 0.5l0.1 0.4v-0.4c0-0.3 0.3-0.6 0.6-0.5 0.4 0 0.6 0.3 0.6 0.6l-0.1 0.4 0.2-0.4c0.1-0.3 0.4-0.4 0.7-0.3 0.3 0.1 0.4 0.4 0.3 0.7l-0.1 0.4 0.2-0.4c0.2-0.2 0.5-0.3 0.8-0.2 0.3 0.2 0.4 0.5 0.2 0.8l-0.2 0.4 0.3-0.3c0.2-0.2 0.6-0.3 0.8 0 0.2 0.2 0.2 0.5 0 0.8l-0.3 0.3 0.4-0.2c0.2-0.2 0.6-0.1 0.8 0.1 0.1 0.3 0.1 0.6-0.2 0.8 0.3-0.1 0.6 0 0.7 0.3 0.1 0.3 0 0.6-0.3 0.8l-0.6 0.2 0.6-0.1c0.4 0 0.6 0.2 0.7 0.5q0 0.3-0.1 0.4-0.2 0.2-0.4 0.3h-0.5l0.5 0.1c0.3 0 0.5 0.3 0.5 0.6 0 0.3-0.3 0.5-0.6 0.5q0 0 0 0z"/>
				<path id="&lt;Path&gt;" class="s88" d="m265.7 116.7h-0.4l0.4 0.1c0.3 0.1 0.4 0.3 0.3 0.6-0.1 0.2-0.2 0.3-0.4 0.3q-0.1 0-0.2 0l-0.3-0.1 0.3 0.2c0.2 0.1 0.3 0.4 0.1 0.6 0 0.1-0.2 0.2-0.4 0.2q-0.1 0-0.2 0l-0.3-0.2 0.2 0.2c0.2 0.2 0.2 0.5 0.1 0.7q-0.2 0.1-0.4 0.1-0.2 0-0.3-0.1l-0.3-0.3 0.2 0.4c0.2 0.2 0.1 0.5-0.1 0.6q-0.1 0.1-0.3 0.1-0.2 0-0.4-0.2l-0.2-0.3 0.2 0.3c0.1 0.3-0.1 0.5-0.3 0.6q-0.1 0.1-0.2 0c-0.2 0-0.3-0.1-0.4-0.3l-0.1-0.3v0.4c0 0.2-0.1 0.5-0.4 0.5q0 0-0.1 0c-0.2 0-0.4-0.2-0.4-0.4l-0.1-0.4v0.4c0 0.2-0.2 0.4-0.5 0.4q0 0 0 0c-0.3 0-0.5-0.2-0.4-0.5v-0.4l-0.1 0.4c-0.1 0.2-0.3 0.3-0.5 0.3q0 0-0.1 0c-0.3-0.1-0.4-0.4-0.3-0.6l0.1-0.4-0.2 0.4c-0.1 0.1-0.2 0.2-0.4 0.2q-0.1 0-0.2-0.1c-0.3-0.1-0.3-0.4-0.2-0.6l0.2-0.3-0.3 0.2q-0.1 0.2-0.3 0.2-0.2 0-0.3-0.2c-0.2-0.1-0.2-0.4 0-0.6l0.2-0.3-0.3 0.2q-0.1 0.1-0.3 0.1-0.2 0-0.3-0.2c-0.2-0.2-0.1-0.5 0.1-0.7l0.3-0.2-0.3 0.1q-0.1 0.1-0.2 0.1c-0.2 0-0.4-0.1-0.4-0.3-0.1-0.3 0-0.5 0.2-0.6l0.4-0.2-0.4 0.1q0 0-0.1 0c-0.2 0-0.4-0.2-0.4-0.4-0.1-0.3 0.1-0.5 0.4-0.5l0.4-0.1h-0.4c-0.3-0.1-0.5-0.3-0.4-0.5 0-0.3 0.2-0.5 0.5-0.5l0.3 0.1-0.3-0.1c-0.3-0.1-0.4-0.4-0.3-0.6 0.1-0.3 0.3-0.4 0.6-0.3l0.3 0.1-0.3-0.2c-0.2-0.2-0.3-0.4-0.1-0.7 0.1-0.2 0.4-0.3 0.6-0.1l0.3 0.2-0.2-0.3c-0.2-0.2-0.2-0.5 0-0.7 0.1-0.1 0.4-0.1 0.6 0l0.3 0.3-0.2-0.3c-0.2-0.2-0.1-0.5 0.1-0.7 0.2-0.1 0.5 0 0.7 0.2l0.2 0.3-0.2-0.4c0-0.2 0.1-0.5 0.3-0.6 0.3-0.1 0.5 0.1 0.6 0.3l0.2 0.4-0.1-0.4c0-0.3 0.2-0.5 0.4-0.5 0.3-0.1 0.5 0.1 0.5 0.4l0.1 0.3v-0.3c0-0.3 0.3-0.5 0.5-0.4 0.3 0 0.5 0.2 0.5 0.5l-0.1 0.3 0.1-0.3c0.1-0.3 0.4-0.4 0.6-0.3 0.3 0.1 0.4 0.3 0.3 0.6l-0.1 0.3 0.2-0.3c0.1-0.2 0.4-0.3 0.7-0.1 0.2 0.1 0.2 0.4 0.1 0.6l-0.2 0.3 0.3-0.2c0.2-0.2 0.5-0.2 0.6-0.1 0.2 0.2 0.2 0.5 0 0.7l-0.2 0.3 0.3-0.2c0.2-0.2 0.5-0.1 0.7 0.1 0.1 0.2 0 0.5-0.2 0.6 0.3 0 0.5 0.1 0.6 0.3 0.1 0.3 0 0.5-0.3 0.6l-0.5 0.2h0.6c0.2-0.1 0.5 0.1 0.5 0.4q0 0.2-0.1 0.3-0.1 0.2-0.3 0.2h-0.4l0.4 0.1c0.3 0 0.5 0.2 0.4 0.5 0 0.2-0.2 0.4-0.4 0.4q-0.1 0-0.1 0z"/>
				<path id="&lt;Path&gt;" class="s89" d="m264.6 116.5h-0.3 0.3c0.1 0.1 0.2 0.3 0.2 0.5-0.1 0.1-0.2 0.2-0.4 0.2q0 0-0.1 0l-0.2-0.1 0.2 0.2c0.2 0.1 0.2 0.3 0.1 0.4q-0.1 0.2-0.3 0.2-0.1 0-0.1 0l-0.3-0.2 0.2 0.2c0.2 0.1 0.2 0.4 0 0.5q-0.1 0.1-0.2 0.1-0.2 0-0.3-0.1l-0.2-0.2 0.2 0.2c0.1 0.2 0 0.4-0.1 0.5q-0.1 0.1-0.2 0.1-0.2 0-0.3-0.2l-0.1-0.2v0.3c0.1 0.1 0 0.3-0.2 0.4q0 0-0.1 0c-0.1 0-0.3-0.1-0.3-0.2l-0.1-0.3v0.3c0.1 0.2-0.1 0.4-0.3 0.4q0 0 0 0c-0.2 0-0.3-0.1-0.4-0.3v-0.3 0.3c0 0.2-0.2 0.3-0.4 0.3q0 0 0 0c-0.2 0-0.3-0.2-0.3-0.4v-0.2l-0.1 0.2c0 0.2-0.2 0.3-0.3 0.3q-0.1 0-0.1 0c-0.2-0.1-0.3-0.3-0.2-0.5l0.1-0.2-0.2 0.2q-0.1 0.2-0.3 0.2-0.1 0-0.2-0.1c-0.1-0.1-0.2-0.3-0.1-0.5l0.2-0.2-0.2 0.2q-0.1 0.1-0.3 0.1-0.1 0-0.2-0.1c-0.2-0.1-0.2-0.4 0-0.5l0.2-0.2-0.3 0.2q-0.1 0-0.2 0-0.1 0-0.3-0.1c-0.1-0.2 0-0.4 0.1-0.5l0.3-0.2-0.3 0.1q0 0-0.1 0c-0.1 0-0.3 0-0.3-0.2-0.1-0.2 0-0.4 0.2-0.4l0.2-0.1h-0.2q-0.1 0-0.1 0c-0.2 0-0.3-0.1-0.3-0.3-0.1-0.2 0.1-0.4 0.3-0.4h0.2-0.2c-0.2-0.1-0.4-0.2-0.3-0.4 0-0.2 0.1-0.4 0.3-0.3h0.3l-0.3-0.1c-0.1-0.1-0.2-0.3-0.2-0.4 0.1-0.2 0.3-0.3 0.5-0.3l0.2 0.1-0.2-0.1c-0.2-0.1-0.2-0.3-0.1-0.5 0.1-0.2 0.3-0.2 0.5-0.1l0.2 0.1-0.2-0.2c-0.1-0.1-0.2-0.3 0-0.4 0.1-0.2 0.3-0.2 0.5-0.1l0.2 0.2-0.2-0.2c-0.1-0.2 0-0.4 0.1-0.5 0.2-0.1 0.4 0 0.5 0.1l0.2 0.3-0.1-0.3c-0.1-0.2 0-0.4 0.2-0.4 0.2-0.1 0.3 0 0.4 0.2l0.1 0.2v-0.3c0-0.1 0.1-0.3 0.3-0.3 0.2-0.1 0.3 0.1 0.4 0.3v0.2-0.2c0-0.2 0.2-0.4 0.4-0.4 0.2 0.1 0.3 0.2 0.3 0.4v0.3l0.1-0.3c0-0.1 0.2-0.2 0.4-0.2 0.2 0.1 0.3 0.3 0.2 0.5v0.2l0.1-0.2c0.1-0.2 0.3-0.2 0.5-0.1 0.1 0.1 0.2 0.3 0.1 0.4l-0.2 0.3 0.2-0.2c0.2-0.2 0.4-0.2 0.5 0 0.2 0.1 0.2 0.3 0 0.5l-0.2 0.2 0.3-0.2c0.1-0.1 0.4 0 0.5 0.1 0.1 0.2 0 0.4-0.1 0.5 0.1-0.1 0.3 0 0.4 0.2 0.1 0.2 0 0.4-0.2 0.4l-0.4 0.2 0.4-0.1c0.2 0 0.4 0.1 0.4 0.3q0 0.2 0 0.3-0.1 0.1-0.3 0.1l-0.3 0.1h0.3c0.2 0 0.4 0.2 0.3 0.4 0 0.1-0.1 0.3-0.3 0.3q0 0 0 0z"/>
				<path id="&lt;Path&gt;" class="s90" d="m263.2 116.2h-0.2 0.2c0.1 0.1 0.1 0.2 0.1 0.3q-0.1 0.1-0.2 0.1 0 0-0.1 0h-0.1l0.1 0.1c0.1 0 0.1 0.1 0.1 0.2q-0.1 0.1-0.2 0.1 0 0-0.1 0l-0.1-0.1 0.1 0.1c0.1 0.1 0.1 0.2 0 0.3q-0.1 0.1-0.1 0.1-0.1 0-0.2-0.1l-0.1-0.1 0.1 0.1c0 0.1 0 0.3-0.1 0.3q0 0.1-0.1 0.1-0.1 0-0.2-0.1v-0.2 0.2c0.1 0.1 0 0.2-0.1 0.2q0 0.1-0.1 0.1-0.1 0-0.2-0.2v-0.1 0.1c0 0.1-0.1 0.2-0.2 0.3q0 0 0 0c-0.1 0-0.2-0.1-0.2-0.2v-0.2 0.2c0 0.1-0.1 0.2-0.2 0.2q0 0-0.1 0c-0.1 0-0.1-0.1-0.1-0.2v-0.2l-0.1 0.1q0 0.2-0.2 0.2 0 0 0 0c-0.1-0.1-0.2-0.2-0.2-0.3l0.1-0.1-0.1 0.1q0 0.1-0.2 0.1 0 0-0.1 0c-0.1-0.1-0.1-0.2 0-0.3l0.1-0.1-0.2 0.1q0 0-0.1 0-0.1 0-0.1 0c-0.1-0.1-0.1-0.2 0-0.3l0.1-0.1-0.2 0.1q0 0-0.1 0-0.1 0-0.2-0.1c0-0.1 0-0.2 0.1-0.3l0.1-0.1-0.1 0.1q0 0-0.1 0-0.1 0-0.2-0.1c0-0.1 0-0.2 0.2-0.3h0.1-0.2q0 0 0 0c-0.1 0-0.2-0.1-0.2-0.2 0-0.1 0.1-0.2 0.2-0.2h0.1l-0.1-0.1c-0.1 0-0.2-0.1-0.2-0.2 0-0.1 0.1-0.2 0.2-0.2l0.2 0.1-0.2-0.1c-0.1 0-0.1-0.1-0.1-0.2 0-0.1 0.2-0.2 0.3-0.2l0.1 0.1-0.1-0.1c-0.1-0.1-0.1-0.2-0.1-0.3 0.1-0.1 0.2-0.1 0.3 0h0.1l-0.1-0.1c-0.1-0.1-0.1-0.2 0-0.3 0.1 0 0.2 0 0.3 0l0.1 0.1-0.1-0.1c0-0.1 0-0.2 0.1-0.3 0.1 0 0.2 0 0.3 0.1v0.1-0.1c-0.1-0.1 0-0.2 0.1-0.3 0.1 0 0.2 0 0.3 0.1v0.2-0.2c0-0.1 0.1-0.2 0.2-0.2 0.1 0 0.2 0.1 0.2 0.2v0.1-0.1c0-0.1 0.1-0.2 0.3-0.2 0.1 0 0.1 0.1 0.1 0.2v0.2l0.1-0.2c0-0.1 0.1-0.1 0.2-0.1 0.1 0 0.2 0.1 0.2 0.3l-0.1 0.1 0.1-0.1c0-0.1 0.2-0.2 0.3-0.1 0.1 0.1 0.1 0.2 0 0.3l-0.1 0.1 0.2-0.1c0-0.1 0.2-0.1 0.2 0 0.1 0.1 0.1 0.2 0 0.3l-0.1 0.1 0.2-0.1c0.1-0.1 0.2 0 0.3 0.1 0 0.1 0 0.2-0.1 0.2 0.1 0 0.2 0.1 0.2 0.2 0.1 0.1 0 0.2-0.1 0.2l-0.2 0.1h0.2c0.2 0 0.3 0 0.3 0.1q0 0.1-0.1 0.2 0 0.1-0.1 0.1h-0.2 0.2c0.1 0 0.2 0.1 0.2 0.2 0 0.1-0.1 0.2-0.2 0.2q0 0 0 0z"/>
			</g>
			<g id="&lt;Group&gt;">
				<path id="&lt;Path&gt;" class="s91" d="m175.8 161.1l-0.5-0.1 0.5 0.2c0.3 0.1 0.5 0.5 0.4 0.8-0.1 0.3-0.3 0.5-0.6 0.5q-0.1 0-0.2-0.1l-0.5-0.1 0.4 0.2c0.3 0.2 0.4 0.6 0.3 0.9-0.2 0.2-0.4 0.3-0.6 0.3q-0.2 0-0.3-0.1l-0.5-0.2 0.4 0.3c0.3 0.3 0.3 0.7 0 1q-0.2 0.2-0.5 0.2-0.2 0-0.4-0.2l-0.4-0.4 0.3 0.5c0.2 0.3 0.1 0.7-0.2 0.9q-0.1 0.1-0.3 0.1c-0.2 0-0.5-0.1-0.6-0.3l-0.3-0.5 0.2 0.5c0.1 0.4 0 0.7-0.4 0.9q-0.1 0-0.2 0c-0.3 0-0.5-0.2-0.6-0.4l-0.2-0.5 0.1 0.5c0 0.4-0.2 0.7-0.6 0.7q0 0-0.1 0c-0.3 0-0.6-0.2-0.6-0.5l-0.1-0.5v0.5c-0.1 0.3-0.3 0.6-0.7 0.6q0 0 0 0c-0.4-0.1-0.6-0.4-0.6-0.7v-0.6l-0.1 0.5c-0.1 0.3-0.4 0.5-0.6 0.5q-0.1 0-0.2-0.1c-0.4-0.1-0.6-0.4-0.5-0.8l0.2-0.5-0.3 0.5c-0.1 0.2-0.3 0.3-0.5 0.3q-0.2 0-0.4-0.1c-0.3-0.2-0.4-0.6-0.2-0.9l0.3-0.4-0.4 0.3q-0.2 0.2-0.4 0.2-0.3 0-0.5-0.1c-0.3-0.3-0.3-0.7 0-1l0.3-0.3-0.4 0.2q-0.2 0.2-0.3 0.2c-0.3 0-0.5-0.2-0.6-0.3-0.2-0.3-0.1-0.7 0.2-0.9l0.4-0.3-0.5 0.2q-0.1 0-0.2 0c-0.2 0-0.5-0.2-0.6-0.4-0.1-0.4 0.1-0.7 0.4-0.9l0.5-0.1h-0.5q-0.1 0-0.1 0c-0.3 0-0.6-0.2-0.7-0.5 0-0.4 0.2-0.7 0.6-0.8h0.5l-0.5-0.1c-0.4 0-0.6-0.3-0.6-0.7 0-0.4 0.4-0.6 0.7-0.6l0.5 0.1-0.5-0.2c-0.3-0.1-0.5-0.5-0.4-0.8 0.1-0.4 0.5-0.5 0.9-0.4l0.4 0.1-0.4-0.2c-0.3-0.2-0.4-0.6-0.2-0.9 0.2-0.3 0.6-0.4 0.9-0.2l0.4 0.2-0.4-0.3c-0.2-0.3-0.2-0.7 0-1 0.3-0.2 0.7-0.2 1 0l0.3 0.4-0.3-0.4c-0.2-0.3-0.1-0.8 0.2-0.9 0.3-0.2 0.7-0.2 0.9 0.1l0.3 0.5-0.2-0.5c-0.1-0.3 0.1-0.7 0.4-0.8 0.4-0.2 0.7 0 0.9 0.3l0.1 0.5v-0.5c-0.1-0.3 0.2-0.7 0.5-0.7 0.4-0.1 0.7 0.2 0.8 0.6v0.5l0.1-0.6c0-0.3 0.3-0.6 0.7-0.5 0.3 0 0.6 0.3 0.6 0.7l-0.1 0.5 0.2-0.5c0.1-0.3 0.5-0.5 0.8-0.4 0.4 0.1 0.5 0.5 0.4 0.8l-0.1 0.5 0.2-0.4c0.2-0.3 0.6-0.4 0.9-0.3 0.3 0.2 0.4 0.6 0.2 0.9l-0.2 0.5 0.3-0.4c0.3-0.2 0.7-0.2 0.9 0 0.3 0.3 0.3 0.7 0.1 0.9l-0.4 0.4 0.4-0.3c0.3-0.2 0.7-0.1 0.9 0.2 0.2 0.3 0.1 0.7-0.1 0.9 0.3-0.1 0.6 0 0.8 0.4 0.1 0.3-0.1 0.7-0.4 0.8l-0.7 0.3 0.7-0.1c0.4-0.1 0.7 0.2 0.8 0.5q0 0.3-0.1 0.5-0.2 0.2-0.5 0.3h-0.5l0.5 0.1c0.4 0 0.6 0.3 0.6 0.7 0 0.3-0.3 0.6-0.6 0.6q-0.1 0-0.1 0z"/>
				<path id="&lt;Path&gt;" class="s92" d="m175.1 160.9h-0.5l0.4 0.1c0.3 0.1 0.5 0.4 0.4 0.7-0.1 0.3-0.3 0.4-0.5 0.4q-0.1 0-0.2 0l-0.4-0.1 0.3 0.2c0.3 0.2 0.4 0.5 0.2 0.8-0.1 0.2-0.3 0.3-0.5 0.3q-0.1 0-0.2-0.1l-0.4-0.2 0.3 0.3c0.2 0.2 0.2 0.5 0 0.8q-0.2 0.2-0.4 0.2-0.2 0-0.4-0.2l-0.3-0.3 0.2 0.4c0.2 0.2 0.1 0.6-0.1 0.8q-0.2 0-0.4 0c-0.1 0-0.3 0-0.4-0.2l-0.3-0.4 0.2 0.4c0.1 0.3-0.1 0.7-0.4 0.8q-0.1 0-0.2 0c-0.2 0-0.4-0.1-0.5-0.4l-0.2-0.4 0.1 0.5c0.1 0.3-0.2 0.6-0.5 0.6q0 0-0.1 0c-0.2 0-0.5-0.2-0.5-0.5l-0.1-0.4v0.4c-0.1 0.3-0.3 0.5-0.6 0.5q0 0 0 0c-0.4 0-0.6-0.3-0.6-0.6l0.1-0.4-0.2 0.4c0 0.2-0.3 0.4-0.5 0.4q-0.1 0-0.2 0c-0.3-0.1-0.5-0.5-0.4-0.8l0.2-0.4-0.2 0.4c-0.2 0.2-0.3 0.3-0.5 0.3q-0.2 0-0.3-0.1c-0.3-0.2-0.4-0.5-0.2-0.8l0.2-0.4-0.3 0.3q-0.2 0.2-0.4 0.2-0.2 0-0.4-0.1c-0.2-0.3-0.2-0.6 0-0.9l0.3-0.3-0.4 0.3q-0.1 0.1-0.3 0.1c-0.2 0-0.4-0.1-0.5-0.3-0.2-0.3-0.1-0.6 0.2-0.8l0.4-0.2-0.5 0.1q-0.1 0.1-0.2 0.1c-0.2 0-0.4-0.2-0.5-0.4-0.1-0.3 0-0.6 0.3-0.8l0.5-0.1h-0.5q0 0-0.1 0c-0.2 0-0.5-0.2-0.5-0.4-0.1-0.4 0.2-0.7 0.5-0.7h0.4l-0.4-0.1c-0.4 0-0.6-0.3-0.6-0.6 0.1-0.3 0.4-0.6 0.7-0.5h0.4l-0.4-0.1c-0.3-0.1-0.5-0.5-0.4-0.8 0.1-0.3 0.5-0.4 0.8-0.3l0.4 0.1-0.4-0.2c-0.3-0.2-0.4-0.5-0.2-0.8 0.2-0.3 0.5-0.3 0.8-0.2l0.4 0.2-0.4-0.3c-0.2-0.2-0.2-0.5 0-0.8 0.3-0.2 0.6-0.2 0.8 0l0.4 0.3-0.3-0.4c-0.1-0.2-0.1-0.6 0.2-0.7 0.3-0.2 0.6-0.1 0.8 0.1l0.2 0.4-0.1-0.4c-0.1-0.3 0-0.6 0.3-0.8 0.3-0.1 0.6 0.1 0.7 0.4l0.2 0.4-0.1-0.4c0-0.4 0.2-0.6 0.5-0.7 0.4 0 0.6 0.2 0.7 0.5v0.5l0.1-0.5c0-0.3 0.3-0.5 0.6-0.5 0.3 0 0.6 0.3 0.5 0.6v0.5l0.1-0.5c0.1-0.3 0.4-0.4 0.7-0.3 0.3 0.1 0.5 0.4 0.4 0.7l-0.1 0.4 0.2-0.3c0.2-0.3 0.5-0.4 0.8-0.2 0.3 0.1 0.3 0.5 0.2 0.7l-0.3 0.4 0.4-0.3c0.2-0.2 0.5-0.2 0.8 0 0.2 0.2 0.2 0.6 0 0.8l-0.3 0.3 0.3-0.2c0.3-0.2 0.7-0.1 0.8 0.2 0.2 0.2 0.1 0.5-0.1 0.7 0.3-0.1 0.6 0.1 0.7 0.4 0.1 0.2 0 0.6-0.3 0.7l-0.7 0.2h0.7c0.3-0.1 0.6 0.1 0.7 0.4q0 0.3-0.2 0.5-0.1 0.1-0.3 0.2h-0.5l0.5 0.1c0.3 0 0.5 0.3 0.5 0.6 0 0.3-0.3 0.5-0.6 0.5q0 0 0 0z"/>
				<path id="&lt;Path&gt;" class="s93" d="m174.1 160.7h-0.4l0.4 0.1c0.2 0.1 0.4 0.4 0.3 0.6-0.1 0.2-0.3 0.3-0.5 0.3q0 0-0.1 0l-0.4-0.1 0.3 0.2c0.3 0.1 0.3 0.4 0.2 0.6-0.1 0.2-0.2 0.3-0.4 0.3q-0.1 0-0.2-0.1l-0.4-0.2 0.3 0.3c0.2 0.1 0.2 0.4 0 0.6q-0.1 0.2-0.3 0.2-0.2 0-0.3-0.2l-0.3-0.2 0.2 0.3c0.1 0.2 0.1 0.5-0.1 0.6q-0.2 0.1-0.3 0.1-0.2 0-0.4-0.2l-0.2-0.3 0.1 0.3c0.1 0.3 0 0.6-0.2 0.7q-0.1 0-0.2 0c-0.2 0-0.4-0.1-0.4-0.3l-0.2-0.4 0.1 0.4c0 0.3-0.2 0.5-0.4 0.5q-0.1 0-0.1 0c-0.2 0-0.4-0.1-0.5-0.4v-0.3 0.3c-0.1 0.3-0.3 0.4-0.5 0.4q0 0-0.1 0c-0.2 0-0.4-0.2-0.4-0.5l0.1-0.3-0.2 0.3c0 0.2-0.2 0.3-0.4 0.3q-0.1 0-0.1 0c-0.3-0.1-0.4-0.3-0.3-0.6l0.1-0.3-0.2 0.3c-0.1 0.1-0.3 0.2-0.4 0.2q-0.2 0-0.3 0c-0.2-0.2-0.3-0.5-0.1-0.7l0.2-0.3-0.3 0.3q-0.1 0.1-0.3 0.1-0.2 0-0.4-0.1c-0.1-0.2-0.2-0.5 0-0.7l0.3-0.3-0.3 0.2q-0.1 0.1-0.3 0.1-0.2 0-0.4-0.2c-0.1-0.2-0.1-0.5 0.2-0.6l0.3-0.3-0.4 0.2q-0.1 0-0.1 0c-0.2 0-0.4-0.1-0.5-0.3-0.1-0.2 0.1-0.5 0.3-0.6l0.3-0.1h-0.3q-0.1 0-0.1 0c-0.2 0-0.4-0.2-0.5-0.4 0-0.2 0.2-0.5 0.5-0.5l0.3-0.1h-0.3c-0.3 0-0.5-0.3-0.5-0.5 0.1-0.3 0.3-0.5 0.5-0.4h0.4l-0.3-0.1c-0.3-0.1-0.4-0.4-0.3-0.6 0-0.3 0.3-0.4 0.6-0.3l0.3 0.1-0.3-0.2c-0.2-0.1-0.3-0.4-0.2-0.6 0.2-0.3 0.5-0.3 0.7-0.2l0.3 0.2-0.3-0.3c-0.2-0.1-0.2-0.4 0-0.6 0.2-0.2 0.5-0.2 0.7 0l0.3 0.2-0.3-0.3c-0.1-0.2 0-0.5 0.2-0.6 0.2-0.2 0.5-0.1 0.6 0.1l0.2 0.3-0.1-0.3c-0.1-0.3 0-0.5 0.3-0.6 0.2-0.1 0.5 0 0.6 0.2l0.1 0.4v-0.4c-0.1-0.2 0.1-0.5 0.4-0.5 0.2 0 0.5 0.1 0.5 0.4l0.1 0.4v-0.4c0-0.3 0.2-0.4 0.5-0.4 0.3 0 0.5 0.2 0.4 0.5v0.4l0.1-0.4c0.1-0.2 0.4-0.4 0.6-0.3 0.2 0.1 0.4 0.4 0.3 0.6l-0.1 0.4 0.2-0.4c0.1-0.2 0.4-0.2 0.6-0.1 0.2 0.1 0.3 0.4 0.2 0.6l-0.2 0.4 0.2-0.3c0.2-0.2 0.5-0.2 0.7 0 0.2 0.2 0.2 0.5 0 0.6l-0.2 0.3 0.3-0.2c0.2-0.1 0.5-0.1 0.6 0.1 0.2 0.3 0.1 0.5-0.1 0.7 0.2-0.1 0.5 0 0.6 0.2 0.1 0.3 0 0.6-0.3 0.7l-0.5 0.2 0.5-0.1c0.3-0.1 0.5 0.1 0.6 0.4q0 0.2-0.1 0.3-0.1 0.2-0.3 0.2l-0.4 0.1h0.4c0.2 0 0.4 0.3 0.4 0.5 0 0.3-0.2 0.4-0.5 0.4q0 0 0 0z"/>
				<path id="&lt;Path&gt;" class="s94" d="m172.9 160.5h-0.3l0.3 0.1c0.2 0 0.3 0.2 0.2 0.4 0 0.2-0.1 0.2-0.3 0.2q0 0.1-0.1 0l-0.3-0.1 0.3 0.2c0.1 0.1 0.2 0.3 0.1 0.5q-0.1 0.1-0.3 0.1-0.1 0-0.2 0l-0.2-0.2 0.2 0.2c0.1 0.2 0.1 0.4 0 0.5q-0.1 0.1-0.3 0.1-0.1 0-0.2-0.1l-0.2-0.2 0.2 0.3c0.1 0.1 0 0.4-0.1 0.5q-0.1 0-0.2 0-0.2 0-0.3-0.1l-0.2-0.3 0.1 0.3c0.1 0.2 0 0.4-0.2 0.4q-0.1 0.1-0.1 0.1c-0.2 0-0.3-0.1-0.3-0.3l-0.1-0.2v0.2c0 0.2-0.1 0.4-0.3 0.4q0 0 0 0c-0.2 0-0.4-0.1-0.4-0.3v-0.2l-0.1 0.2c0 0.2-0.1 0.4-0.3 0.4q0 0 0 0c-0.2-0.1-0.4-0.2-0.3-0.4v-0.3l-0.1 0.3c-0.1 0.1-0.2 0.2-0.3 0.2q-0.1 0-0.1 0c-0.2-0.1-0.3-0.3-0.3-0.5l0.1-0.2-0.1 0.2q-0.1 0.2-0.3 0.2-0.1 0-0.2-0.1c-0.2-0.1-0.2-0.3-0.1-0.4l0.1-0.3-0.2 0.2q-0.1 0.1-0.2 0.1-0.2 0-0.3-0.1c-0.1-0.1-0.1-0.3 0-0.5l0.2-0.2-0.2 0.2q-0.1 0.1-0.2 0.1-0.2-0.1-0.3-0.2c-0.1-0.2-0.1-0.4 0.1-0.5l0.2-0.1-0.2 0.1q-0.1 0-0.1 0c-0.2 0-0.3-0.1-0.4-0.2 0-0.2 0.1-0.4 0.2-0.5l0.3-0.1h-0.3q0 0 0 0c-0.2 0-0.3-0.1-0.4-0.3 0-0.1 0.1-0.3 0.3-0.3l0.3-0.1h-0.3c-0.2 0-0.3-0.2-0.3-0.4 0-0.2 0.2-0.3 0.4-0.3h0.3l-0.3-0.1c-0.2 0-0.3-0.2-0.2-0.4 0.1-0.2 0.3-0.3 0.4-0.2l0.3 0.1-0.2-0.2c-0.2-0.1-0.3-0.3-0.2-0.5 0.1-0.1 0.4-0.2 0.5-0.1l0.3 0.2-0.2-0.2c-0.2-0.2-0.2-0.4-0.1-0.5 0.2-0.2 0.4-0.2 0.5 0l0.2 0.2-0.1-0.3c-0.1-0.1-0.1-0.3 0.1-0.4 0.2-0.2 0.4-0.1 0.5 0.1l0.1 0.2-0.1-0.3c0-0.2 0.1-0.4 0.2-0.4 0.2-0.1 0.4 0 0.5 0.2l0.1 0.2-0.1-0.2c0-0.2 0.2-0.4 0.3-0.4 0.2 0 0.4 0.1 0.4 0.3l0.1 0.3v-0.3c0-0.2 0.2-0.3 0.4-0.3 0.2 0 0.3 0.2 0.3 0.4v0.2-0.2c0.1-0.2 0.3-0.3 0.5-0.3 0.2 0.1 0.3 0.3 0.2 0.5l-0.1 0.3 0.2-0.3c0.1-0.2 0.3-0.2 0.4-0.1 0.2 0.1 0.3 0.3 0.2 0.5l-0.2 0.2 0.2-0.2c0.1-0.1 0.4-0.1 0.5 0 0.1 0.1 0.1 0.4 0 0.5l-0.2 0.2 0.2-0.2c0.2-0.1 0.4 0 0.5 0.2 0.1 0.1 0.1 0.3-0.1 0.4 0.2 0 0.4 0 0.5 0.2 0 0.2 0 0.4-0.2 0.5l-0.4 0.1h0.4c0.2-0.1 0.4 0.1 0.4 0.3q0 0.1-0.1 0.2-0.1 0.1-0.2 0.2h-0.3 0.3c0.2 0 0.3 0.2 0.3 0.4 0 0.2-0.2 0.3-0.3 0.3q-0.1 0-0.1 0z"/>
				<path id="&lt;Path&gt;" class="s95" d="m171.5 160.2h-0.1l0.1 0.1c0.1 0 0.2 0.1 0.2 0.2q-0.1 0.2-0.2 0.2-0.1 0-0.1 0l-0.2-0.1 0.2 0.1c0.1 0 0.1 0.2 0.1 0.3q-0.1 0.1-0.2 0.1-0.1 0-0.1-0.1h-0.2l0.2 0.1c0 0 0 0.2 0 0.2q-0.1 0.1-0.2 0.1-0.1 0-0.1 0l-0.1-0.2 0.1 0.2c0 0.1 0 0.2-0.1 0.3q-0.1 0-0.1 0-0.1 0-0.2-0.1l-0.1-0.1 0.1 0.1c0 0.1 0 0.2-0.1 0.3q-0.1 0-0.1 0-0.1 0-0.2-0.1l-0.1-0.2 0.1 0.2c0 0.1-0.1 0.2-0.2 0.2q0 0 0 0c-0.1 0-0.2-0.1-0.2-0.2l-0.1-0.1v0.1c0 0.1-0.1 0.2-0.2 0.2q0 0 0 0c-0.1 0-0.2-0.1-0.2-0.2v-0.2 0.2q-0.1 0.1-0.2 0.1 0 0-0.1 0c-0.1 0-0.1-0.1-0.1-0.3l0.1-0.1-0.1 0.1q-0.1 0.1-0.2 0.1 0 0-0.1 0c-0.1-0.1-0.1-0.2-0.1-0.3l0.1-0.1-0.1 0.1q-0.1 0.1-0.1 0.1-0.1 0-0.2-0.1c-0.1-0.1-0.1-0.2 0-0.3l0.1-0.1-0.1 0.1q-0.1 0-0.1 0-0.1 0-0.2-0.1c0-0.1 0-0.2 0.1-0.2l0.1-0.1h-0.1q-0.1 0-0.1 0-0.1 0-0.2-0.1c0-0.1 0-0.2 0.1-0.2l0.2-0.1h-0.2q0 0 0 0c-0.1 0-0.2-0.1-0.2-0.2 0-0.1 0-0.2 0.2-0.2h0.1-0.1c-0.2 0-0.2-0.1-0.2-0.2 0-0.2 0.1-0.2 0.2-0.2h0.2l-0.2-0.1c-0.1 0-0.2-0.1-0.1-0.2 0-0.1 0.1-0.2 0.2-0.1h0.2l-0.2-0.1c-0.1 0-0.1-0.2 0-0.2 0-0.1 0.2-0.2 0.3-0.1l0.1 0.1-0.1-0.1c-0.1-0.1-0.1-0.2 0-0.3 0-0.1 0.2-0.1 0.3 0l0.1 0.1-0.1-0.2c-0.1-0.1-0.1-0.2 0-0.2 0.1-0.1 0.3-0.1 0.3 0l0.1 0.2v-0.2c-0.1-0.1 0-0.2 0.1-0.3 0.1 0 0.2 0.1 0.2 0.2l0.1 0.1v-0.1c0-0.2 0-0.3 0.1-0.3 0.2 0 0.3 0.1 0.3 0.2v0.2-0.2c0-0.1 0.1-0.2 0.2-0.2 0.1 0 0.2 0.1 0.2 0.2v0.2-0.1c0.1-0.2 0.2-0.2 0.3-0.2 0.1 0.1 0.2 0.2 0.1 0.3v0.1l0.1-0.1c0-0.1 0.1-0.1 0.2-0.1 0.1 0.1 0.2 0.2 0.1 0.3l-0.1 0.1 0.1-0.1c0.1 0 0.2-0.1 0.3 0 0.1 0.1 0.1 0.2 0 0.3l-0.1 0.1 0.1-0.1c0.1 0 0.3 0 0.3 0.1 0.1 0.1 0.1 0.2 0 0.3 0.1-0.1 0.2 0 0.2 0.1 0.1 0.1 0 0.2-0.1 0.2l-0.2 0.1h0.2c0.1 0 0.2 0.1 0.2 0.2q0.1 0.1 0 0.1 0 0.1-0.1 0.1h-0.2 0.2c0.1 0 0.2 0.1 0.2 0.3-0.1 0.1-0.1 0.1-0.2 0.1q-0.1 0-0.1 0z"/>
			</g>
			<g id="&lt;Group&gt;">
				<path id="&lt;Path&gt;" class="s0" d="m162 112.8q-6-3.9-10.6-2.8"/>
				<path id="&lt;Path&gt;" class="s96" d="m111.9 91.9c6.7-2.7 14.2-1.5 20.6 1.4q14 6.2 18.9 16.7-38.3-19.5-59.2 2.2 6.6-15.2 19.7-20.3z"/>
				<path id="&lt;Path&gt;" class="s97" d="m151.4 110q-13.8 14-34.4 4.1-15.9-7-24.8-1.9 20.9-21.7 59.2-2.2z"/>
				<path id="&lt;Path&gt;" class="s98" d=""/>
			</g>
		</g>
	</g>
	<path id="Brito spa" class="s99" aria-label="Brito spa"  d="m75.1 198h0.1l1 1h-1.1zm-8.8-15.2v23.3l1.8 1.6h14.9c4 0 7.3-3.1 7.3-7.2 0-1.8-0.4-3.2-1.1-4.3 0.7-1.2 1.1-2.6 1.1-4.4 0-4.1-4.9-9-9-9zm16 16c0-1.1-0.3-1.6-1-1.6h-5.4v-5.5h5.4c0.7 0 1-0.3 1-1.1 0-1-0.3-1.6-1-1.6h-8.7v10.8h8.7c0.7 0 1-0.3 1-1zm-1-15.2c3.6 0 6.4 3 6.4 6.6 0 1.7-0.4 3.1-1.2 4.2 0.8 1.2 1.2 2.4 1.2 3.8v0.6c0 3.5-2.8 6.5-6.4 6.5h-14.2v-21.7zm10.6 21.7l5.6-16c1-3 4.2-5.5 7.3-5.5h3.5v5.3h-3.5c-1.1 0-1.8 0.7-2.3 2l-4.9 14.2zm0.6 2.4h7.3l5.2-14.6c0.3-1 0.8-1.5 1.5-1.5h4.2v-6.9l-1.6-1.8h-4.3c-3.4 0-6.9 2.7-8.1 6.1l-6 17.1zm27.7-21.5c0 1.8-1.5 3.4-3.4 3.4-2 0-3.5-1.6-3.5-3.4 0-2 1.5-3.5 3.5-3.5 1.9 0 3.4 1.5 3.4 3.5zm-6.9 20l1.8 1.6h6.9v-15.8l-0.8-0.9c1-1 1.5-2.1 1.5-3.3 0-1.6-0.1-1.9-2.5-4.3-1.3-1.3-2.2-1.7-3.4-1.7-2.4 0-4.4 2-4.4 4.4 0 1.4 0.6 2.4 1.7 3.3l0.7 0.7h-1.5zm0.9-15.2h5.4v14.3h-5.4zm16.4-8.3h-7.5l6 17.2c1.4 4.1 5.9 7.8 9.9 7.8h4.2v-6.9l-1.6-1.9h-4.3c-0.6-1.5-1-2.7-1.3-3.6h4v-7l-1.6-1.8h-5.4l-0.7-2zm2.6 10.1l1.7 5c0.5 1.3 1.2 2 2.4 2h3.4v5.5h-3.4c-3.3 0-6.4-2.6-7.5-5.7l-5.6-16h5.8l1.3 3.8h6.2v5.4zm21.9 6.9c-1 0-1.9-0.2-2.6-0.7-0.5-0.9-0.7-1.8-0.7-2.7 0-2.9 2.3-5.3 5-5.3 0.9 0 1.6 0.2 2.3 0.6 0.6 0.9 0.9 1.9 0.9 2.9 0 2.8-2 5.2-4.9 5.2zm0-17.4c-6.6 0-12 5.6-12 12.2 0 7.3 6.6 14 13.7 14 6.7 0 11.9-5.7 11.9-12.2 0-6.8-6.8-14-13.6-14zm0 18.3c3.3 0 5.8-2.9 5.8-6.1 0-3.1-2.5-6-5.8-6-3.2 0-5.7 2.8-5.7 6 0 3.3 2.4 6.1 5.7 6.1zm0-17.5c6.3 0 11.1 5.3 11.1 11.4 0 6.2-4.8 11.5-11.1 11.5-6.2 0-11.1-5.2-11.1-11.5 0-6.1 4.9-11.4 11.1-11.4zm28.4 23l1.8 1.6h4.2c2.8 0 6.6-2.1 8-6 0.9-2.3 2-5.2 3.2-8.6 0.3-0.7 1.2-1.5 1.9-1.5h4.6v-6.9l-1.7-1.8h-4.6c-3.5 0-6.9 2.4-8.4 5.9l-3.3 8.8c-0.2 0.4-1.1 1.4-1.4 1.4h-4.3zm0.8-6.2h3.5c0.8 0 2-1.3 2.2-2l3.3-8.6c1.1-3.1 4.4-5.5 7.6-5.5h3.8v5.4h-3.8c-0.9 0-2.3 1-2.6 2l-3.2 8.6c-1.1 3.1-4.4 5.5-7.3 5.5h-3.5zm33.3-8.3h6c0.1 0.2 0.1 0.4 0.1 0.6 0 1.2-0.8 2.3-1.9 2.3h-4.2zm-8.6-8.7v23.2l1.8 1.6h6.8v-4.6h5.9c5.1 0 8.9-4.2 8.9-9.2 0-5.2-5.4-11-10.6-11zm12.8 12.4c1.6 0 2.8-1.5 2.8-3.1 0-1.6-1.2-3.1-2.8-3.1h-6.6v6.2zm0-11.6c4.8 0 8.2 3.9 8.2 8.5 0 4.6-3.6 8.5-8.2 8.5h-6.6v4.5h-5.4v-21.5zm30.1 22.4l1.8 1.6h7.3l-5.9-17c-1.7-4.6-5.5-8-9.9-8h-9.1v7.2l1.8 1.6h0.6c-2.9 1.4-4.3 3.7-4.3 6.9 0 5.6 3.7 9.3 9.1 9.3h8.3v-2.4zm-10.3-9c-0.7 0-1.1 0.4-1.1 1.1 0 1.1 0.4 1.6 1.1 1.6h7.6v5.4h-7.6c-3.5 0-6.5-2.9-6.5-6.5v-0.5c0-3.6 3-6.5 6.5-6.5h6.2c-0.7-2.2-1.3-2.7-2.5-2.7h-8.3v-5.5h8.3c3 0 6.3 2.5 7.4 5.7l5.6 16h-5.8l-2.8-8.1z"/>
</svg>